<svg width="47" height="30" viewBox="0 0 47 30" fill="none" xmlns="http://www.w3.org/2000/svg">
<g clip-path="url(#clip0_317_753)">
<path d="M32.2038 1.46225C31.9578 1.97278 31.8624 2.50714 31.8635 3.07932C31.8735 8.27997 31.8665 13.4807 31.8749 18.6813C31.8755 19.0909 31.9811 19.493 32.1772 19.8708C32.3907 19.7612 32.39 19.5518 32.4381 19.3773C32.6188 18.7217 32.795 18.0716 33.1532 17.4776C33.3249 17.1928 33.3721 16.8315 33.4782 16.5057C33.5593 16.2563 33.6421 16.0073 33.7282 15.7596C33.9046 15.2515 34.0725 14.7399 34.2653 14.2382C34.4026 13.8809 34.5861 13.5421 34.7283 13.1866C34.8999 12.7578 35.0597 12.3236 35.2061 11.8854C35.3617 11.4199 35.4763 10.9397 35.645 10.4795C35.7828 10.1036 35.988 9.75349 36.1374 9.38128C36.3102 8.95107 36.4516 8.50807 36.6123 8.07279C36.7166 7.79047 36.8463 7.51696 36.9372 7.23061C37.0572 6.85286 37.1338 6.46071 37.2595 6.08523C37.396 5.67772 37.5626 5.28017 37.7251 4.88207C37.8997 4.45443 38.0955 4.03543 38.262 3.60471C38.4 3.2477 38.5058 2.87809 38.6317 2.5161C38.7023 2.31297 38.7908 2.11619 38.8602 1.91265C38.9943 1.51877 39.1166 1.12075 39.2522 0.727389C39.2986 0.592566 39.37 0.46653 39.4356 0.324219C39.5986 0.420431 39.7214 0.511217 39.7534 0.726938C39.7904 0.976861 39.8869 1.21958 39.9728 1.4599C40.1533 1.96541 40.3391 2.46911 40.532 2.96991C40.6252 3.21194 40.7583 3.43931 40.8396 3.68476C40.9577 4.04158 41.0336 4.41264 41.1494 4.77039C41.2609 5.11505 41.3994 5.45082 41.5273 5.78997C41.7025 6.25429 41.8821 6.71696 42.0538 7.18261C42.1562 7.46048 42.2427 7.74437 42.3443 8.02259C42.5052 8.46338 42.6699 8.9028 42.8385 9.34067C42.9805 9.70979 43.132 10.0752 43.2763 10.4435C43.5024 11.0201 43.7295 11.5964 43.9495 12.1754C44.1472 12.6958 44.3441 13.2168 44.5263 13.743C44.702 14.2507 44.8506 14.7682 45.0259 15.2761C45.1638 15.6758 45.3261 16.0668 45.4743 16.4629C45.6676 16.9796 45.8519 17.4998 46.0506 18.0144C46.2757 18.5975 46.5094 19.1772 46.7455 19.7559C46.8277 19.9573 46.9281 20.1511 47.0307 20.3342C47.0412 20.4879 47.0412 20.6558 47.0412 20.843C46.8428 20.8902 46.6444 20.9415 46.4458 20.9422C44.5563 20.9483 42.6667 20.9459 40.7771 20.9458C40.5086 20.9457 40.4073 20.8602 40.4059 20.5847C40.4003 19.4791 40.3983 18.3734 40.4066 17.2678C40.4093 16.9098 40.546 16.5851 40.7118 16.271C40.9058 15.9035 41.0865 15.5287 41.2696 15.1554C41.4112 14.8666 41.5514 14.577 41.6854 14.2845C41.8357 13.9562 41.9996 13.6316 42.1123 13.29C42.1502 13.1753 42.0749 12.9994 42.0073 12.8762C41.7862 12.4736 41.5242 12.0931 41.3172 11.6837C41.1079 11.2695 40.9232 10.8391 40.7682 10.4011C40.5957 9.91399 40.4585 9.41319 40.3251 8.91312C40.1878 8.39869 40.077 7.87708 39.9467 7.36067C39.9212 7.25973 39.8592 7.16823 39.8141 7.07237C39.7907 7.08246 39.7673 7.09255 39.7439 7.10264C39.7439 7.17781 39.7439 7.25299 39.7439 7.32816C39.7439 8.6494 39.7617 9.97103 39.7329 11.2916C39.7244 11.6834 39.8879 11.9616 40.1042 12.2281C40.4028 12.5961 40.4056 13.231 40.1103 13.593C39.8913 13.8616 39.7355 14.1566 39.7379 14.5372C39.7506 16.5399 39.7421 18.5426 39.7465 20.5453C39.747 20.7632 39.667 20.8951 39.4001 20.9691C39.3617 20.8025 39.2956 20.6479 39.295 20.493C39.2879 18.5877 39.2845 16.6823 39.2958 14.777C39.2978 14.4349 39.1984 14.1484 39.0351 13.8593C38.6885 13.2459 38.6938 12.6275 39.0315 12.0003C39.2085 11.6716 39.3236 11.3212 39.2966 10.9255C39.2589 10.3738 39.2518 9.81915 39.2522 9.26576C39.2526 8.67064 39.2815 8.07557 39.2866 7.48038C39.2877 7.3492 39.2412 7.2176 39.2166 7.0862C39.1798 7.0858 39.143 7.08541 39.1062 7.08502C39.0577 7.31483 39.0111 7.54507 38.9602 7.77434C38.899 8.05019 38.8799 8.34763 38.7613 8.5959C38.5216 9.09733 38.444 9.63874 38.302 10.1642C38.1575 10.6988 37.9598 11.2094 37.6661 11.6795C37.4306 12.0563 37.1906 12.4305 36.9627 12.812C36.8486 13.0028 36.8727 13.2011 36.9651 13.4032C37.1426 13.7913 37.3034 14.1871 37.4768 14.5772C37.6398 14.9435 37.8103 15.3064 37.977 15.671C38.1079 15.9572 38.2424 16.2419 38.3658 16.5313C38.402 16.6161 38.4219 16.715 38.4221 16.8074C38.4257 18.0661 38.4247 19.3247 38.4244 20.5834C38.4244 20.8789 38.3577 20.9458 38.0672 20.9458C34.7553 20.9458 31.4434 20.946 28.1316 20.9448C28.0372 20.9448 27.9149 20.9879 27.8814 20.8425C27.8527 20.7177 27.8753 20.6315 27.9968 20.533C28.5216 20.1079 28.8223 19.5477 28.8574 18.8615C28.8831 18.3575 28.8988 17.8524 28.8991 17.3478C28.902 11.9099 28.9009 6.47195 28.9009 1.03402C28.9009 0.678908 28.9522 0.625853 29.2956 0.625943C30.3469 0.626216 31.3982 0.626561 32.4743 0.642482C32.62 0.736226 32.6128 0.845953 32.5726 0.963802C32.5726 0.963802 32.5715 0.960977 32.5607 0.966442C32.5408 1.00206 32.5317 1.0322 32.5227 1.06235C32.5227 1.06235 32.5191 1.07459 32.4988 1.07207C32.2523 1.14545 32.1517 1.28925 32.2038 1.46225Z" fill="#187163"/>
<path d="M16.0721 2.71213C16.0744 3.7411 16.0937 4.77045 16.0713 5.79888C16.0611 6.26689 15.9996 6.73998 15.9006 7.19726C15.8476 7.44178 15.6729 7.66227 15.5398 7.88541C15.2564 8.36028 14.9554 8.82452 14.6789 9.30334C14.4879 9.63399 14.3068 9.9733 14.1552 10.3237C13.8945 10.9262 13.6418 11.5336 13.4202 12.1516C13.2049 12.7518 13.006 13.3609 12.8499 13.979C12.6977 14.5814 12.6139 15.2012 12.4904 15.8114C12.3569 16.4713 12.3009 17.1384 12.2861 17.81C12.2707 18.5094 12.238 19.2092 12.2511 19.9081C12.2622 20.5048 12.3244 21.1007 12.3697 21.6966C12.4061 22.1747 12.4511 22.6522 12.4921 23.13C12.4927 23.1369 12.4918 23.1439 12.4924 23.1508C12.532 23.5651 12.5256 23.5679 12.1017 23.5761C11.8845 23.5804 11.6667 23.6231 11.451 23.6122C10.8119 23.58 10.1721 23.5346 9.55653 23.3376C9.04251 23.1732 8.51428 23.0364 8.02592 22.8123C7.49409 22.5683 6.98928 22.2565 6.49485 21.939C6.13001 21.7047 5.78525 21.4315 5.45991 21.1429C5.12418 20.8451 4.81147 20.5182 4.50963 20.1846C4.23 19.8755 3.95943 19.5544 3.71763 19.2147C3.14646 18.4123 2.69627 17.5383 2.40168 16.5972C2.21469 15.9998 2.11076 15.3752 1.98142 14.7602C1.92873 14.5097 1.9074 14.2525 1.86816 13.9723C2.11154 13.9946 2.31676 13.9773 2.49692 14.0371C2.90557 14.173 3.31318 14.3214 3.6545 14.6058C3.84641 14.7657 4.05603 14.904 4.24561 15.0665C4.62346 15.3904 4.82818 15.8317 5.03025 16.2759C5.26984 16.8026 5.51596 17.3265 5.77161 17.8453C5.98467 18.2777 6.19559 18.7135 6.44424 19.125C6.68797 19.5283 6.9601 19.9176 7.25275 20.2863C7.57752 20.6954 7.9192 21.0953 8.29059 21.4607C8.76644 21.9288 9.30099 22.3272 9.85148 22.7073C10.2132 22.957 10.607 23.0639 11.0157 23.1639C11.1952 23.2078 11.3679 23.2801 11.5437 23.3395C11.562 23.3207 11.5803 23.3019 11.5986 23.2831C11.4077 23.0342 11.2424 22.7585 11.0207 22.542C10.5856 22.1173 10.1152 21.7298 9.66696 21.3184C9.36457 21.0409 9.06437 20.7592 8.78332 20.46C8.54885 20.2104 8.34091 19.9349 8.12629 19.6667C7.936 19.429 7.7422 19.1929 7.56883 18.9427C7.33199 18.6009 7.10462 18.2516 6.88892 17.8958C6.69477 17.5755 6.50551 17.25 6.34335 16.9125C6.09781 16.4014 5.87553 15.8787 5.64776 15.359C5.55919 15.1569 5.46786 14.9541 5.4034 14.7436C5.24376 14.2222 5.07975 13.7008 4.95358 13.1707C4.83146 12.6576 4.73355 12.1363 4.66348 11.6134C4.59532 11.1047 4.57512 10.5894 4.53691 10.0768C4.53413 10.0396 4.55616 10.0005 4.5895 9.94139C4.64144 9.85612 4.69349 9.79259 4.696 9.72713C4.71683 9.18156 4.72854 8.63564 4.74301 8.08982C5.05598 8.44555 5.37654 8.79483 5.6795 9.15909C5.91497 9.44222 6.12841 9.74412 6.35181 10.0375C6.70736 10.5046 6.91368 11.0403 7.00343 11.6143C7.09606 12.2067 7.13174 12.8082 7.22043 13.4014C7.28031 13.8019 7.37831 14.1977 7.47859 14.5906C7.58176 14.9947 7.70002 15.3955 7.82668 15.7928C8.03089 16.4334 8.22791 17.0776 8.46551 17.7057C8.62626 18.1306 8.84927 18.5317 9.04838 18.9415C9.2619 19.381 9.4572 19.8318 9.70322 20.252C9.91027 20.6057 10.1787 20.9225 10.4199 21.2556C10.588 21.488 10.7557 21.7207 10.9241 21.9529C11.0524 22.1297 11.1771 22.3094 11.3114 22.4814C11.4696 22.684 11.6272 22.508 11.8027 22.4776C11.5794 22.1242 11.358 21.7883 11.1515 21.4432C10.918 21.0528 10.6884 20.6594 10.4746 20.2578C10.2304 19.799 9.99319 19.3354 9.77581 18.863C9.59034 18.4601 9.42986 18.0447 9.27183 17.6296C9.09933 17.1764 8.92665 16.7222 8.78304 16.2593C8.63955 15.7967 8.51819 15.3258 8.41234 14.8528C8.30006 14.3511 8.21489 13.8431 8.12293 13.3369C8.07558 13.0762 8.03278 12.8143 7.99962 12.5515C7.96452 12.2734 7.93414 11.994 7.91794 11.7142C7.88408 11.1294 7.83191 10.5434 7.84065 9.95874C7.85166 9.22299 7.88788 8.48498 7.96592 7.75371C8.0342 7.11388 8.16879 6.48076 8.28636 5.847C8.38744 5.30217 8.48903 4.75638 8.62163 4.2189C8.73925 3.74215 8.89923 3.27607 9.04163 2.80562C9.14681 2.45818 9.24428 2.10792 9.36266 1.7651C9.48103 1.42229 9.62216 1.08756 9.75133 0.748522C9.83756 0.522214 9.9203 0.29455 9.99091 0.0546202C10.1295 0.0417482 10.2817 0.0417482 10.453 0.0597838C10.4739 0.140088 10.465 0.20511 10.4796 0.2642C10.6331 0.886736 10.7913 1.50807 10.9462 2.13027C11.0374 2.49679 11.1458 2.86062 11.209 3.23219C11.2978 3.7549 11.3756 4.28193 11.4136 4.8104C11.447 5.27472 11.4848 5.75568 11.4033 6.20762C11.2757 6.9151 11.0477 7.6039 10.8654 8.30147C10.7852 8.6083 10.6938 8.91395 10.6414 9.22597C10.5559 9.73551 10.4874 10.2486 10.4311 10.7624C10.3402 11.5914 10.2294 12.4206 10.1924 13.2527C10.1464 14.2868 10.1672 15.324 10.3071 16.3539C10.372 16.8323 10.4221 17.3135 10.5063 17.7884C10.5865 18.2404 10.6934 18.6883 10.8055 19.1336C10.9025 19.5191 10.9984 19.9081 11.1401 20.2778C11.3053 20.7092 11.5141 21.1242 11.7159 21.5403C11.7842 21.6812 11.8886 21.8041 11.9765 21.9352C11.9684 21.7233 11.9079 21.5293 11.8765 21.3306C11.7597 20.5926 11.6473 19.8538 11.5434 19.1138C11.441 18.3854 11.3348 17.657 11.2608 16.9254C11.2061 16.3848 11.1802 15.8393 11.1775 15.2958C11.1735 14.4577 11.1835 13.6186 11.2192 12.7813C11.2486 12.0901 11.3063 11.3988 11.3839 10.7113C11.4562 10.0707 11.5648 9.43385 11.6703 8.7975C11.7299 8.43756 11.7962 8.07657 11.8938 7.72581C12.0197 7.27279 12.1769 6.82845 12.3264 6.38236C12.4523 6.00656 12.5716 5.62737 12.7211 5.26105C12.884 4.86166 13.0689 4.47053 13.2612 4.08453C13.525 3.55538 13.7921 3.02713 14.0824 2.51272C14.2562 2.20485 14.4729 1.92122 14.6775 1.63194C14.9246 1.28273 15.1822 0.941173 15.4295 0.592161C15.5562 0.413346 15.6705 0.225508 15.7904 0.041748C15.8343 0.0417482 15.8783 0.0417482 15.9388 0.0613027C15.9553 0.840555 15.9503 1.60032 15.9605 2.35988C15.9621 2.47778 16.0332 2.59473 16.0721 2.71213Z" fill="#187163"/>
<path d="M0.0412598 29.8121C0.0824366 29.676 0.14465 29.5639 0.161405 29.4451C0.277451 28.6227 0.386301 27.7993 0.492777 26.9755C0.553067 26.5091 0.591807 26.0395 0.663847 25.575C0.722716 25.1955 1.10934 24.8077 1.5084 24.7003C1.77862 24.6277 2.04554 24.5425 2.31528 24.4679C2.79651 24.3348 3.27713 24.1989 3.76109 24.0768C4.15003 23.9786 4.54193 23.8904 4.93558 23.814C5.20618 23.7615 5.48105 23.7198 5.75577 23.7033C6.21918 23.6756 6.68691 23.6326 7.14744 23.6678C7.70135 23.7103 8.25202 23.8146 8.7997 23.9164C9.38696 24.0256 9.93305 24.2744 10.4317 24.5889C10.883 24.8735 11.2965 25.2296 11.6896 25.595C11.9989 25.8825 12.2539 26.2304 12.5284 26.5554C12.5993 26.6394 12.6527 26.7386 12.7142 26.8308C12.7028 26.8452 12.6913 26.8596 12.6799 26.874C12.4604 26.7763 12.2401 26.6802 12.0215 26.5806C11.374 26.2856 10.7337 25.9728 10.0776 25.6991C9.63004 25.5124 9.16751 25.3518 8.69872 25.231C8.29727 25.1276 7.87874 25.0855 7.46531 25.0381C7.08136 24.9941 6.69102 24.9341 6.30914 24.9616C5.71321 25.0044 5.10956 25.0003 4.52614 25.1819C4.08056 25.3205 3.61596 25.398 3.17339 25.5447C2.82065 25.6616 2.4602 25.7988 2.15414 26.0047C1.764 26.267 1.46825 26.6416 1.44662 27.1507C1.42834 27.581 1.44285 28.0127 1.44285 28.4487C2.21111 28.2024 2.96146 27.9464 3.72175 27.7253C4.06115 27.6266 4.42562 27.6192 4.76976 27.5335C5.44957 27.3642 6.13985 27.394 6.82423 27.424C7.31724 27.4456 7.81213 27.5425 8.29459 27.6561C8.73183 27.7591 9.15599 27.9229 9.58092 28.0741C9.84259 28.1673 10.0933 28.2915 10.3518 28.3944C10.7274 28.5438 11.106 28.6857 11.4827 28.8327C11.6558 28.9003 11.8318 28.9626 11.9983 29.0445C12.2624 29.1743 12.6182 28.9625 12.7673 28.7449C12.9998 28.4054 13.2217 28.0491 13.5054 27.757C14.1342 27.1093 15.1975 27.022 15.8819 27.665C16.1635 27.9295 16.3697 28.2754 16.6163 28.5792C16.7194 28.7063 16.8273 28.8341 16.9525 28.9372C17.2236 29.1604 17.5 28.9853 17.7525 28.8954C18.2185 28.7296 18.6688 28.5187 19.1269 28.3297C19.4678 28.189 19.8027 28.0259 20.1545 27.9218C20.665 27.7707 21.1856 27.6503 21.7072 27.5429C22.0362 27.4751 22.3745 27.4259 22.7093 27.4219C23.0168 27.4182 23.3251 27.4858 23.6329 27.5227C23.7536 27.5372 23.874 27.5536 23.9946 27.5691C23.9972 27.5917 23.9998 27.6143 24.0025 27.6369C23.8916 27.6872 23.7818 27.7402 23.6696 27.7872C23.1914 27.9877 22.7093 28.1789 22.2346 28.3876C21.6765 28.6331 21.1269 28.8984 20.5692 29.1449C20.2161 29.3011 19.8526 29.4328 19.4984 29.5865C19.1842 29.7228 18.8765 29.8742 18.5799 30.0303C17.8784 30.0416 17.1629 30.0416 16.442 30.0322C16.0581 29.6647 15.767 29.2249 15.3151 28.9302C14.889 28.6523 14.321 28.5953 13.9445 28.9359C13.6973 29.1597 13.486 29.4266 13.2752 29.6879C13.1962 29.7858 13.1641 29.9226 13.1106 30.0416C12.5462 30.0416 11.9819 30.0416 11.4131 30.0311C11.3936 29.9896 11.3867 29.9428 11.3623 29.9301C11.0617 29.7733 10.7701 29.5882 10.4534 29.4757C9.92135 29.2867 9.37858 29.1203 8.82961 28.9907C8.39354 28.8878 7.94298 28.8174 7.49619 28.7991C6.91753 28.7753 6.33613 28.8317 5.75607 28.8279C5.01534 28.8231 4.2948 28.9763 3.56954 29.0879C3.24934 29.1372 2.92736 29.2224 2.62693 29.3439C2.21587 29.5101 1.82373 29.7247 1.426 29.9237C1.382 29.9457 1.35449 30.0015 1.31933 30.0416C0.893305 30.0416 0.467279 30.0416 0.0412599 30.0416C0.0412599 29.9701 0.0412599 29.9015 0.0412598 29.8121Z" fill="#187163"/>
<path d="M16.0751 2.69278C16.0332 2.59473 15.9621 2.47778 15.9606 2.35988C15.9503 1.60032 15.9553 0.840554 15.9553 0.0613026C15.9862 0.041748 16.0171 0.041748 16.0635 0.041748C16.0787 0.918973 16.0784 1.7962 16.0751 2.69278Z" fill="#187163"/>
<path d="M23.6127 2.72821C23.7731 3.45671 23.916 4.17242 24.0806 4.88297C24.1869 5.34198 24.3295 5.79228 24.4479 6.24858C24.6172 6.90063 24.7691 7.55746 24.948 8.20671C25.0642 8.62812 25.2224 9.03745 25.3486 9.45628C25.4567 9.81531 25.55 10.1791 25.6427 10.5427C25.7794 11.0786 25.9319 11.6119 26.0361 12.1545C26.1241 12.6129 26.3329 13.0157 26.5117 13.4342C26.5826 13.6003 26.7459 13.6277 26.8777 13.5029C27.0326 13.3563 27.1917 13.2143 27.3652 13.0555C27.4863 13.2906 27.4705 13.4766 27.4071 13.6698C27.296 14.0083 27.1915 14.349 27.0874 14.6897C27.0167 14.921 26.9418 15.1516 26.8854 15.3865C26.7547 15.9314 26.6384 16.4797 26.5079 17.0246C26.4279 17.3585 26.3344 17.6891 26.2438 18.0203C26.1569 18.3384 26.0584 18.6534 25.9783 18.9732C25.834 19.5488 25.7043 20.1282 25.5555 20.7026C25.5355 20.7797 25.4429 20.8867 25.378 20.8911C25.285 20.8975 25.1714 20.8404 25.0955 20.7757C25.0357 20.7247 25.0069 20.6245 24.9861 20.5406C24.8853 20.1349 24.8021 19.7245 24.6932 19.3212C24.5387 18.7487 24.3707 18.1798 24.2019 17.6114C24.0488 17.0956 23.8757 16.5857 23.7333 16.067C23.6477 15.7551 23.6112 15.4297 23.5389 15.1136C23.4941 14.9174 23.4476 14.715 23.3596 14.5366C23.1536 14.1189 23.1442 13.6589 23.0457 13.2184C22.9941 12.9877 22.9476 12.755 22.8797 12.5291C22.7038 11.9433 22.5128 11.3622 22.3373 10.7764C22.2599 10.5183 22.2019 10.254 22.1412 9.99105C22.0759 9.70819 22.0267 9.42132 21.9548 9.1403C21.8147 8.59284 21.6694 8.04656 21.5147 7.50319C21.4373 7.23151 21.3185 6.9716 21.2463 6.69882C21.1203 6.22322 21.0194 5.74089 20.9012 5.26311C20.8251 4.95522 20.7463 4.64734 20.6514 4.34499C20.5386 3.98539 20.4075 3.63167 20.2838 3.27561C20.2764 3.25426 20.2639 3.23471 20.2135 3.21679C20.2096 3.27987 20.2024 3.34296 20.2023 3.40605C20.2017 5.35298 20.1975 7.29993 20.2084 9.24679C20.2095 9.44954 20.2629 9.67284 20.358 9.85043C20.692 10.4739 20.6063 11.0754 20.3446 11.6906C20.2672 11.8724 20.209 12.0793 20.2079 12.2751C20.1977 14.1037 20.1786 15.9329 20.2152 17.7609C20.2271 18.3532 20.192 18.975 20.4435 19.5377C20.6171 19.9259 20.8506 20.2786 21.2425 20.4962C21.3195 20.539 21.3846 20.6738 21.3869 20.7678C21.3901 20.9015 21.2739 20.9473 21.1423 20.947C20.1598 20.9447 19.1773 20.95 18.1949 20.9388C18.1025 20.9378 17.9731 20.8592 17.9325 20.7793C17.9055 20.7262 17.9854 20.5842 18.0531 20.5211C18.2584 20.3298 18.518 20.1869 18.6858 19.9693C18.84 19.7694 18.9228 19.5037 19.0015 19.2555C19.1893 18.663 19.3048 18.0578 19.299 17.4287C19.2935 16.8408 19.3307 16.2526 19.3342 15.6644C19.3406 14.5936 19.3385 13.5228 19.3348 12.452C19.3333 12.0328 19.2364 11.6395 19.0524 11.2569C18.8708 10.8793 18.8834 10.484 19.1011 10.1092C19.2494 9.85397 19.3359 9.57905 19.3359 9.28021C19.3361 7.41672 19.3462 5.55314 19.3299 3.68981C19.3249 3.12084 19.2999 2.54036 18.9994 2.0262C18.8151 1.7107 18.5672 1.45947 18.2718 1.24007C18.1244 1.13058 17.8746 1.03712 17.9392 0.76289C17.9517 0.709647 18.0188 0.654427 18.0737 0.630877C18.1261 0.608361 18.1953 0.625873 18.2571 0.625873C19.748 0.625863 21.2389 0.625793 22.7299 0.625956C22.9172 0.625976 23.0619 0.785725 23.092 0.971681C23.1297 1.20408 23.1881 1.43459 23.2566 1.65998C23.3641 2.01367 23.4876 2.36239 23.6127 2.72821Z" fill="#187163"/>
<path d="M26.8401 10.1194C27.0458 9.89971 27.2455 9.69121 27.4586 9.49765C27.5471 9.41724 27.6391 9.43543 27.7663 9.49434C28.2102 9.69994 28.2997 10.1139 28.4021 10.5169C28.5355 11.0422 28.3101 11.4578 27.9611 11.8261C27.9021 11.8883 27.8785 11.9893 27.8139 12.0404C27.7476 12.0927 27.6229 12.1566 27.5722 12.1279C27.2365 11.9378 26.8818 11.7176 26.8165 11.3107C26.7598 10.9575 26.8258 10.5842 26.8375 10.2198C26.8384 10.192 26.8389 10.1643 26.8401 10.1194Z" fill="#187163"/>
<path d="M4.74167 8.07495C4.7285 8.63571 4.71679 9.18163 4.69596 9.7272C4.69346 9.79267 4.6414 9.8562 4.59774 9.9256C4.59464 9.3366 4.60431 8.74257 4.62274 8.14882C4.6237 8.118 4.69945 8.08956 4.74167 8.07495Z" fill="#187163"/>
<path d="M32.2169 1.45634C32.1518 1.28924 32.2524 1.14544 32.4928 1.07397C32.4147 1.20241 32.3223 1.32642 32.2169 1.45634Z" fill="#187163"/>
<path d="M32.587 0.961854C32.6128 0.845977 32.62 0.73625 32.4934 0.645508C32.5791 0.666897 32.6705 0.700888 32.8062 0.751377C32.7208 0.838308 32.6611 0.899095 32.587 0.961854Z" fill="#187163"/>
<path d="M32.5322 1.05514C32.5318 1.03225 32.541 1.0021 32.5627 0.967041C32.5641 0.990718 32.553 1.0193 32.5322 1.05514Z" fill="#187163"/>
<g clip-path="url(#clip1_317_753)">
<path d="M18.549 22.865C18.6646 22.865 18.7603 22.865 18.8865 22.865C18.9334 23.2007 18.9795 23.5308 19.0256 23.861C19.0374 23.8609 19.0491 23.8608 19.0609 23.8606C19.1002 23.5359 19.1396 23.2111 19.1802 22.8761C19.5454 22.8761 19.9053 22.8761 20.2747 22.8761C20.2747 23.8556 20.2747 24.826 20.2747 25.812C20.0405 25.812 19.8046 25.812 19.5495 25.812C19.5495 25.3597 19.5495 24.9044 19.5495 24.4491C19.5342 24.4479 19.5189 24.4466 19.5036 24.4454C19.4448 24.8999 19.3859 25.3544 19.3247 25.8274C19.1838 25.8274 19.0459 25.841 18.913 25.8209C18.8563 25.8124 18.7747 25.74 18.7646 25.6852C18.692 25.2918 18.6348 24.8954 18.5576 24.4985C18.5576 24.9336 18.5576 25.3686 18.5576 25.8154C18.3018 25.8154 18.0661 25.8154 17.8204 25.8154C17.8204 24.8373 17.8204 23.8669 17.8204 22.865C18.0547 22.865 18.2919 22.865 18.549 22.865Z" fill="#FEA800"/>
<path d="M44.1553 24.961C44.1271 25.2312 44.104 25.483 44.0652 25.7323C44.0594 25.7699 43.982 25.8185 43.9343 25.8228C43.7987 25.8351 43.6613 25.8271 43.5075 25.8271C43.4417 25.3929 43.377 24.9658 43.3124 24.5387C43.3057 24.5386 43.299 24.5384 43.2923 24.5383C43.2923 24.9607 43.2923 25.3831 43.2923 25.8162C43.0418 25.8162 42.8109 25.8162 42.5636 25.8162C42.5636 24.8455 42.5636 23.8702 42.5636 22.8799C42.9026 22.8799 43.2488 22.8799 43.6285 22.8799C43.6704 23.207 43.7133 23.5418 43.7562 23.8765C43.767 23.8781 43.7777 23.8797 43.7885 23.8813C43.8301 23.5536 43.8716 23.226 43.9154 22.8815C44.2587 22.8815 44.6042 22.8815 44.9649 22.8815C44.9649 23.8493 44.9649 24.8246 44.9649 25.8136C44.7461 25.8136 44.5241 25.8136 44.2824 25.8136C44.2824 25.3436 44.2824 24.8757 44.2824 24.4078C44.2735 24.4074 44.2645 24.4069 44.2556 24.4065C44.2222 24.5849 44.1888 24.7634 44.1553 24.961Z" fill="#FEA800"/>
<path d="M40.7334 24.1586C40.7334 24.5613 40.7336 24.9432 40.7334 25.325C40.7332 25.6061 40.5458 25.8179 40.2611 25.8246C39.8094 25.8352 39.3574 25.8274 38.8918 25.8274C38.8918 24.8411 38.8918 23.8663 38.8918 22.9073C39.3584 22.9073 39.8268 22.8842 40.2917 22.9159C40.571 22.935 40.7333 23.184 40.7334 23.4712C40.7335 23.6934 40.7334 23.9155 40.7334 24.1586ZM39.744 24.8848C39.744 25.0028 39.744 25.1208 39.744 25.2387C39.7699 25.2429 39.7959 25.2472 39.8219 25.2514C39.8508 25.1769 39.9037 25.1029 39.9049 25.0279C39.9127 24.563 39.9128 24.0979 39.9043 23.633C39.9031 23.5677 39.8406 23.5036 39.8065 23.4389C39.7856 23.4498 39.7648 23.4606 39.744 23.4714C39.744 23.929 39.744 24.3865 39.744 24.8848Z" fill="#FEA800"/>
<path d="M28.5298 25.2847C28.5298 25.4711 28.5298 25.6368 28.5298 25.8148C28.239 25.8148 27.962 25.8148 27.6744 25.8148C27.6744 24.8386 27.6744 23.868 27.6744 22.9054C28.1243 22.9054 28.579 22.8803 29.0294 22.9143C29.3262 22.9366 29.4817 23.1872 29.4746 23.5223C29.4703 23.7248 29.4396 23.9281 29.4031 24.1278C29.391 24.1944 29.324 24.2508 29.2778 24.318C29.4221 24.4075 29.4826 24.5652 29.4796 24.7611C29.4742 25.1075 29.4781 25.4541 29.4781 25.814C29.2164 25.814 28.9669 25.814 28.6947 25.814C28.6947 25.4658 28.7003 25.1204 28.6907 24.7754C28.6884 24.6912 28.6363 24.6083 28.6071 24.5248C28.5814 24.5316 28.5556 24.5385 28.5298 24.5453C28.5298 24.7848 28.5298 25.0244 28.5298 25.2847ZM28.6922 23.9053C28.6538 23.7533 28.7991 23.5425 28.541 23.4289C28.541 23.6315 28.541 23.8058 28.541 23.9941C28.5942 23.973 28.6366 23.9562 28.6922 23.9053Z" fill="#FEA800"/>
<path d="M21.4552 25.4053C21.3129 25.2944 21.2509 25.3132 21.2328 25.4554C21.1853 25.8274 21.1853 25.8274 20.8052 25.8274C20.6549 25.8274 20.5046 25.8274 20.3191 25.8274C20.3509 25.5809 20.3774 25.3484 20.4114 25.1169C20.4767 24.673 20.5499 24.2302 20.6127 23.786C20.648 23.5361 20.672 23.2845 20.6957 23.0331C20.7076 22.9064 20.7634 22.8585 20.8926 22.8623C21.1807 22.8708 21.4693 22.868 21.7575 22.8635C21.8734 22.8616 21.9189 22.8949 21.9382 23.0243C22.0185 23.5613 22.1209 24.0949 22.2075 24.6309C22.2607 24.9604 22.3004 25.2921 22.3455 25.6228C22.3659 25.7727 22.3102 25.8383 22.1516 25.8302C21.9342 25.819 21.7159 25.8274 21.4902 25.8274C21.4817 25.6784 21.4743 25.5487 21.4552 25.4053ZM21.4379 24.6705C21.4112 24.4439 21.3845 24.2172 21.3578 23.9905C21.3402 23.9916 21.3227 23.9926 21.3051 23.9936C21.2915 24.2364 21.2778 24.4791 21.2622 24.7568C21.3422 24.734 21.388 24.7209 21.4379 24.6705Z" fill="#FEA800"/>
<path d="M34.7553 25.3288C34.7647 25.3868 34.7736 25.4264 34.7834 25.4658C34.856 25.758 34.8041 25.8274 34.5126 25.8275C34.3958 25.8275 34.2777 25.8162 34.1625 25.83C33.9732 25.8527 33.9193 25.759 33.9302 25.5904C33.9334 25.542 33.945 25.4862 33.9264 25.4463C33.9047 25.3996 33.8543 25.3665 33.8163 25.3276C33.7845 25.3601 33.7331 25.3881 33.7244 25.4261C33.6959 25.5507 33.6828 25.679 33.6606 25.8272C33.4283 25.8272 33.1891 25.8359 32.9516 25.8199C32.9038 25.8166 32.8218 25.7173 32.8245 25.666C32.8373 25.4278 32.8711 25.1905 32.9033 24.9537C32.9547 24.576 33.0137 24.1994 33.0641 23.8215C33.1061 23.5062 33.1402 23.1899 33.1789 22.865C33.5254 22.865 33.8407 22.865 34.156 22.865C34.2239 22.865 34.2918 22.865 34.3688 22.865C34.4988 23.6878 34.627 24.4991 34.7553 25.3288ZM33.8234 24.7415C33.8454 24.6866 33.8903 24.6295 33.8854 24.5772C33.8665 24.3784 33.8314 24.1812 33.7956 23.9366C33.7651 24.072 33.7275 24.1576 33.7308 24.2416C33.7374 24.4087 33.7664 24.5748 33.8234 24.7415Z" fill="#FEA800"/>
<path d="M36.7274 24.7008C36.7158 24.9414 36.7471 25.1958 36.6777 25.4179C36.6297 25.5718 36.4631 25.7533 36.3139 25.7964C35.9327 25.9064 35.5373 25.9605 35.1578 25.7249C34.9683 25.6072 34.8978 25.4175 34.8903 25.2487C34.8629 24.6301 34.8696 24.0092 34.885 23.3898C34.8909 23.1525 35.1739 22.9067 35.426 22.8644C35.7822 22.8046 36.1304 22.7707 36.4646 22.9767C36.6355 23.082 36.6996 23.2404 36.7265 23.4095C36.7663 23.6593 36.7682 23.9153 36.7874 24.1852C36.4899 24.1852 36.2126 24.1852 35.9347 24.1852C35.8381 23.9233 36.012 23.6066 35.8331 23.3599C35.8088 23.3621 35.7844 23.3642 35.76 23.3664C35.7412 23.4503 35.707 23.5341 35.7062 23.6182C35.701 24.1188 35.7011 24.6195 35.7049 25.1202C35.7063 25.3181 35.7518 25.3479 35.9204 25.2562C35.9564 25.2139 35.9743 25.1869 35.9922 25.1407C35.9922 24.6472 35.9923 24.6454 36.4658 24.661C36.5534 24.6638 36.6402 24.687 36.7274 24.7008Z" fill="#FEA800"/>
<path d="M36.906 24.9433C36.9587 24.5588 37.014 24.1746 37.0631 23.7896C37.0959 23.5321 37.1181 23.2733 37.1483 23.0155C37.1598 22.917 37.2012 22.8591 37.3192 22.8622C37.635 22.8704 37.9512 22.8676 38.2671 22.8636C38.3813 22.8622 38.4126 22.9099 38.4282 23.0228C38.5122 23.6291 38.6108 24.2333 38.6987 24.8391C38.7379 25.1095 38.7644 25.3817 38.7953 25.6532C38.809 25.774 38.7628 25.8328 38.6333 25.8291C38.4078 25.8227 38.1819 25.8273 37.9354 25.8273C37.9354 25.6598 37.9354 25.5034 37.9354 25.3483C37.7302 25.2868 37.6741 25.3629 37.6795 25.5473C37.6876 25.8269 37.6791 25.8273 37.4113 25.8273C37.2533 25.8273 37.0953 25.8267 36.9185 25.8062C36.9223 25.6497 36.9625 25.5134 36.963 25.377C36.9636 25.2325 36.9266 25.0879 36.906 24.9433ZM37.7649 24.1527C37.7509 24.3414 37.7369 24.53 37.7229 24.7186C37.7407 24.7322 37.7586 24.7458 37.7764 24.7595C37.8138 24.7162 37.8857 24.6703 37.8827 24.6301C37.8668 24.4159 37.8321 24.2032 37.8039 23.99C37.7909 23.9916 37.7779 23.9931 37.7649 23.9947C37.7649 24.0356 37.7649 24.0766 37.7649 24.1527Z" fill="#FEA800"/>
<path d="M23.1665 24.7455C23.0484 24.6488 22.9425 24.5278 22.8101 24.4598C22.3162 24.2064 22.222 23.5653 22.4653 23.1294C22.5678 22.9458 22.7292 22.8636 22.9236 22.8447C23.2453 22.8133 23.562 22.7882 23.8741 22.9421C24.0821 23.0447 24.0885 23.2222 24.1146 23.3971C24.1339 23.5261 24.1184 23.6603 24.1184 23.8085C23.863 23.8085 23.6133 23.8085 23.3339 23.8085C23.3339 23.6994 23.3404 23.5837 23.33 23.4695C23.3268 23.4346 23.2769 23.404 23.2485 23.3714C23.223 23.4 23.1793 23.4263 23.1752 23.4578C23.1541 23.6198 23.1587 23.7698 23.3295 23.8679C23.5147 23.9743 23.6949 24.092 23.867 24.219C24.2255 24.4836 24.3458 25.276 24.0701 25.6243C23.9876 25.7285 23.8457 25.8462 23.7285 25.8491C23.3831 25.8577 23.0222 25.9678 22.6939 25.7448C22.4839 25.6021 22.3869 25.411 22.3869 25.1613C22.3869 25.0303 22.3869 24.8993 22.3869 24.7422C22.6443 24.7422 22.8889 24.7422 23.152 24.7603C23.1707 24.923 23.1659 25.0678 23.1742 25.2118C23.1765 25.2501 23.2119 25.2997 23.2459 25.3181C23.2692 25.3308 23.344 25.3044 23.3481 25.2852C23.3675 25.1936 23.3949 25.0923 23.3735 25.0062C23.3465 24.8976 23.3583 24.7301 23.1665 24.7455Z" fill="#FEA800"/>
<path d="M31.0822 24.7454C30.9563 24.6465 30.8357 24.5396 30.7034 24.4505C30.4424 24.2745 30.2574 24.0642 30.3014 23.7172C30.3244 23.5359 30.3022 23.3419 30.3581 23.1733C30.4296 22.9578 30.6295 22.8549 30.8472 22.8409C31.1883 22.8189 31.5343 22.7649 31.8513 22.9791C31.9814 23.067 32.0382 23.1655 32.035 23.3156C32.0317 23.4749 32.0343 23.6344 32.0343 23.8158C31.7799 23.8158 31.5323 23.8158 31.2232 23.8158C31.4383 23.9678 31.5932 24.0998 31.7676 24.1949C31.9841 24.3128 32.072 24.5156 32.0993 24.7255C32.1298 24.9597 32.1138 25.2078 32.0727 25.4417C32.0317 25.6754 31.7568 25.8646 31.5235 25.8685C31.345 25.8715 31.1661 25.8619 30.9879 25.8706C30.6607 25.8867 30.3315 25.579 30.3047 25.2236C30.2933 25.0726 30.3028 24.92 30.3028 24.742C30.56 24.742 30.8046 24.742 31.0678 24.7601C31.0867 24.9158 31.0752 25.0548 31.0922 25.1902C31.1016 25.265 31.1596 25.4082 31.2494 25.2872C31.3133 25.201 31.2978 25.0392 31.2847 24.9148C31.2743 24.8163 31.2206 24.7144 31.0822 24.7454ZM31.0886 23.4476C31.1098 23.5775 31.0015 23.7669 31.2396 23.7977C31.2396 23.6546 31.2396 23.514 31.2396 23.3479C31.1811 23.3759 31.1416 23.3948 31.0886 23.4476Z" fill="#FEA800"/>
<path d="M26.9828 23.9722C27.1404 23.986 27.284 23.986 27.4427 23.986C27.4427 24.1964 27.4427 24.3935 27.4427 24.6125C27.2927 24.6125 27.1386 24.6125 26.9743 24.6125C26.9743 24.8119 26.9743 24.9901 26.9743 25.1903C27.1359 25.1903 27.3032 25.1903 27.4848 25.1903C27.4848 25.4086 27.4848 25.6055 27.4848 25.8151C27.0293 25.8151 26.5739 25.8151 26.0973 25.8151C26.0973 25.6452 26.0973 25.4805 26.0973 25.3158C26.0973 24.5655 26.1008 23.8153 26.0945 23.0651C26.0932 22.9096 26.1434 22.8589 26.296 22.8622C26.6867 22.8708 27.0776 22.8651 27.4837 22.8651C27.4837 23.0699 27.4837 23.2667 27.4837 23.4858C27.3202 23.4858 27.1525 23.4858 26.9689 23.4858C26.9689 23.6575 26.9689 23.808 26.9828 23.9722Z" fill="#FEA800"/>
<path d="M41.8465 24.8301C41.8465 24.9597 41.8465 25.0693 41.8465 25.1932C42.0244 25.1932 42.1869 25.1932 42.3659 25.1932C42.3659 25.4036 42.3659 25.6006 42.3659 25.8128C41.9176 25.8128 41.4622 25.8128 40.9937 25.8128C40.9937 24.8393 40.9937 23.8643 40.9937 22.8772C41.4374 22.8772 41.879 22.8772 42.331 22.8772C42.331 23.0755 42.331 23.2674 42.331 23.4813C42.1805 23.4813 42.0268 23.4813 41.8599 23.4813C41.8599 23.6579 41.8599 23.8131 41.8599 23.9902C42.0018 23.9902 42.1417 23.9902 42.2905 23.9902C42.2905 24.2036 42.2905 24.3955 42.2905 24.6093C42.1515 24.6093 42.0115 24.6093 41.8588 24.6093C41.8539 24.6899 41.8502 24.75 41.8465 24.8301Z" fill="#FEA800"/>
<path d="M25.5801 23.5114C25.5668 24.2828 25.5668 25.0396 25.5668 25.8119C25.2765 25.8119 24.9995 25.8119 24.701 25.8119C24.701 25.0481 24.701 24.2811 24.701 23.4926C24.5408 23.4926 24.4005 23.4926 24.2517 23.4926C24.2517 23.2791 24.2517 23.0871 24.2517 22.8799C24.8304 22.8799 25.4095 22.8799 26.0019 22.8799C26.0019 23.0747 26.0019 23.2716 26.0019 23.4969C25.8635 23.4969 25.7284 23.4969 25.5801 23.5114Z" fill="#FEA800"/>
<path d="M45.2224 23.3674C45.2101 23.3352 45.1977 23.3029 45.1919 23.2436C45.2271 23.0282 45.3442 22.9501 45.517 22.9952C45.6433 23.0281 45.7594 23.1016 45.88 23.157C45.8961 23.2281 45.9122 23.2992 45.9233 23.4013C45.927 23.523 45.9267 23.6164 45.9515 23.7024C45.9573 23.7223 46.0492 23.7166 46.1015 23.7226C46.1009 23.5758 46.1004 23.429 46.0998 23.2822C46.1227 23.1943 46.1455 23.1064 46.1941 23.0043C46.4387 22.9901 46.6575 22.9901 46.8889 22.9901C46.9183 22.9901 46.9351 22.9901 46.9519 22.9901C46.7647 23.581 46.5662 24.1686 46.3975 24.7649C46.3484 24.9387 46.3835 25.1371 46.3819 25.3243C46.3804 25.483 46.3816 25.6418 46.3816 25.8139C46.12 25.8139 45.8706 25.8139 45.5876 25.8139C45.6464 25.1442 45.5886 24.4894 45.3565 23.8306C45.3753 23.6369 45.3959 23.47 45.2224 23.3674Z" fill="#FEA800"/>
<path d="M29.9305 22.865C30.0178 22.865 30.0854 22.865 30.1511 22.865C30.2298 23.4678 30.2079 23.7526 29.6611 23.8623C29.6611 23.5385 29.6611 23.2164 29.6611 22.865C29.7388 22.865 29.8248 22.865 29.9305 22.865Z" fill="#FEA800"/>
<path d="M45.8829 23.1386C45.7594 23.1018 45.6434 23.0283 45.5171 22.9954C45.3443 22.9503 45.2272 23.0284 45.1901 23.2297C45.147 23.1271 45.1124 23.0116 45.0714 22.8748C45.3676 22.8748 45.6161 22.8748 45.8858 22.8748C45.8858 22.9603 45.8858 23.0402 45.8829 23.1386Z" fill="#FEA800"/>
<path d="M36.7334 24.6875C36.6402 24.687 36.5533 24.6639 36.4658 24.661C35.9922 24.6455 35.9921 24.6472 35.9825 25.1457C35.9541 25.1802 35.9353 25.1906 35.9165 25.201C35.9165 25.0012 35.9165 24.8013 35.9165 24.5762C36.1596 24.5762 36.397 24.5721 36.6338 24.5806C36.6701 24.5819 36.7043 24.6415 36.7334 24.6875Z" fill="#FEA800"/>
<path d="M46.0966 23.2981C46.1004 23.4291 46.101 23.5759 46.1015 23.7227C46.0492 23.7167 45.9573 23.7224 45.9516 23.7026C45.9267 23.6166 45.9271 23.5231 45.9242 23.4177C45.9499 23.4644 45.9697 23.5256 45.9971 23.6107C46.033 23.5001 46.0632 23.407 46.0966 23.2981Z" fill="#FEA800"/>
<path d="M36.9032 24.96C36.9267 25.0878 36.9637 25.2324 36.9631 25.3769C36.9625 25.5133 36.9224 25.6496 36.8994 25.8032C36.8725 25.7672 36.8199 25.7121 36.8237 25.6612C36.8405 25.4324 36.8732 25.2048 36.9032 24.96Z" fill="#FEA800"/>
<path d="M46.8763 22.9902C46.6576 22.9902 46.4388 22.9902 46.2012 22.9902C46.2362 22.9624 46.2889 22.9141 46.3443 22.9106C46.5084 22.9002 46.6735 22.9075 46.8573 22.9235C46.8763 22.9562 46.8763 22.9732 46.8763 22.9902Z" fill="#FEA800"/>
<path d="M45.2245 23.3848C45.396 23.47 45.3754 23.6368 45.3546 23.8139C45.3065 23.6851 45.2665 23.5436 45.2245 23.3848Z" fill="#FEA800"/>
<path d="M35.9142 25.2116C35.9354 25.1906 35.9543 25.1802 35.9826 25.1648C35.9743 25.1869 35.9564 25.214 35.9275 25.2422C35.915 25.2363 35.9134 25.2292 35.9142 25.2116Z" fill="#FEA800"/>
<path d="M46.8889 22.9903C46.8764 22.9733 46.8764 22.9563 46.8763 22.9265C46.9032 22.9296 46.9302 22.9455 46.9545 22.9758C46.9351 22.9903 46.9183 22.9903 46.8889 22.9903Z" fill="#FEA800"/>
</g>
</g>
<defs>
<clipPath id="clip0_317_753">
<rect width="47" height="30" fill="white"/>
</clipPath>
<clipPath id="clip1_317_753">
<rect width="31.7456" height="4.71488" fill="white" transform="translate(16.4088 22.0305)"/>
</clipPath>
</defs>
</svg>
