<svg width="60" height="60" viewBox="0 0 2613 1648" fill="none" xmlns="http://www.w3.org/2000/svg">
<g clip-path="url(#clip0_1686_606)">
<mask id="mask0_1686_606" style="mask-type:luminance" maskUnits="userSpaceOnUse" x="0" y="0" width="2613" height="1648">
<path d="M2613 0H0V1648H2613V0Z" fill="white"/>
</mask>
<g mask="url(#mask0_1686_606)">
<path d="M1790.39 80.3233C1776.72 108.368 1771.41 137.722 1771.47 169.154C1772.03 454.843 1771.64 740.534 1772.11 1026.22C1772.14 1048.72 1778.01 1070.81 1788.92 1091.57C1800.79 1085.55 1800.74 1074.04 1803.42 1064.46C1813.47 1028.44 1823.26 992.731 1843.18 960.101C1852.72 944.458 1855.35 924.608 1861.24 906.709C1865.76 893.007 1870.36 879.333 1875.14 865.725C1884.95 837.81 1894.29 809.709 1905.01 782.147C1912.64 762.522 1922.84 743.908 1930.75 724.377C1940.29 700.826 1949.17 676.975 1957.31 652.904C1965.96 627.331 1972.33 600.954 1981.71 575.672C1989.37 555.021 2000.78 535.788 2009.09 515.343C2018.69 491.709 2026.55 467.374 2035.49 443.463C2041.28 427.953 2048.5 412.928 2053.55 397.198C2060.22 376.448 2064.48 354.904 2071.47 334.278C2079.06 311.894 2088.32 290.055 2097.35 268.186C2107.06 244.692 2117.95 221.677 2127.2 198.016C2134.88 178.404 2140.76 158.1 2147.76 138.215C2151.68 127.056 2156.61 116.246 2160.46 105.065C2167.92 83.4275 2174.72 61.5634 2182.25 39.9546C2184.84 32.5483 2188.8 25.6248 2192.45 17.8071C2201.51 23.0923 2208.34 28.0796 2210.12 39.9299C2212.17 53.6589 2217.54 66.9924 2222.32 80.1936C2232.35 107.963 2242.68 135.633 2253.41 163.143C2258.59 176.439 2265.99 188.929 2270.5 202.413C2277.07 222.014 2281.3 242.398 2287.73 262.05C2293.94 280.983 2301.62 299.429 2308.75 318.059C2318.49 343.566 2328.46 368.982 2338.02 394.562C2343.7 409.825 2348.51 425.42 2354.15 440.704C2363.11 464.917 2372.26 489.057 2381.64 513.11C2389.54 533.388 2397.95 553.462 2405.98 573.69C2418.54 605.368 2431.17 637.024 2443.41 668.831C2454.39 697.42 2465.34 726.041 2475.47 754.944C2485.24 782.837 2493.49 811.261 2503.25 839.164C2510.91 861.12 2519.94 882.599 2528.17 904.358C2538.92 932.745 2549.16 961.32 2560.21 989.588C2572.73 1021.62 2585.72 1053.47 2598.86 1085.25C2603.42 1096.32 2609.01 1106.96 2614.7 1117.02C2615.29 1125.46 2615.29 1134.69 2615.29 1144.97C2604.27 1147.56 2593.22 1150.38 2582.19 1150.42C2477.15 1150.76 2372.08 1150.62 2267.03 1150.62C2252.1 1150.62 2246.47 1145.91 2246.4 1130.78C2246.09 1070.05 2245.97 1009.31 2246.44 948.572C2246.58 928.906 2254.18 911.074 2263.4 893.819C2274.19 873.63 2284.23 853.043 2294.42 832.533C2302.28 816.67 2310.08 800.758 2317.52 784.691C2325.89 766.659 2334.99 748.825 2341.27 730.064C2343.38 723.763 2339.19 714.097 2335.43 707.329C2323.14 685.21 2308.56 664.309 2297.06 641.819C2285.42 619.068 2275.16 595.423 2266.54 571.363C2256.95 544.606 2249.32 517.094 2241.9 489.623C2234.27 461.364 2228.11 432.711 2220.86 404.342C2219.45 398.798 2216 393.771 2213.49 388.506C2212.19 389.061 2210.89 389.613 2209.59 390.168C2209.59 394.298 2209.59 398.429 2209.59 402.557C2209.59 475.137 2210.58 547.739 2208.98 620.283C2208.51 641.805 2217.6 657.089 2229.62 671.728C2246.22 691.94 2246.38 726.818 2229.96 746.709C2217.78 761.463 2209.12 777.666 2209.26 798.576C2209.97 908.587 2209.49 1018.61 2209.73 1128.62C2209.76 1140.59 2205.31 1147.84 2190.48 1151.9C2188.34 1142.75 2184.67 1134.25 2184.64 1125.74C2184.24 1021.08 2184.05 916.41 2184.68 811.744C2184.79 792.956 2179.26 777.214 2170.18 761.332C2150.91 727.637 2151.21 693.67 2169.99 659.214C2179.83 641.157 2186.23 621.908 2184.72 600.172C2182.63 569.864 2182.23 539.396 2182.25 508.996C2182.27 476.304 2183.88 443.615 2184.17 410.918C2184.23 403.712 2181.64 396.483 2180.28 389.265C2178.23 389.244 2176.18 389.221 2174.14 389.201C2171.44 401.825 2168.85 414.473 2166.02 427.068C2162.62 442.221 2161.56 458.559 2154.96 472.199C2141.63 499.743 2137.32 529.485 2129.43 558.353C2121.39 587.715 2110.4 615.77 2094.07 641.588C2080.98 662.292 2067.64 682.843 2054.97 703.801C2048.63 714.285 2049.96 725.177 2055.1 736.28C2064.97 757.599 2073.91 779.344 2083.55 800.77C2092.61 820.894 2102.09 840.828 2111.36 860.859C2118.64 876.58 2126.11 892.217 2132.97 908.119C2134.98 912.777 2136.09 918.204 2136.11 923.286C2136.31 992.426 2136.25 1061.57 2136.24 1130.71C2136.23 1146.94 2132.53 1150.62 2116.37 1150.62C1932.25 1150.62 1748.12 1150.63 1564 1150.57C1558.75 1150.56 1551.95 1152.93 1550.09 1144.95C1548.49 1138.09 1549.75 1133.35 1556.5 1127.94C1585.68 1104.59 1602.4 1073.82 1604.35 1036.12C1605.78 1008.43 1606.65 980.688 1606.67 952.97C1606.83 654.247 1606.77 355.523 1606.77 56.7986C1606.77 37.2915 1609.62 34.3769 1628.71 34.3819C1687.16 34.3968 1745.61 34.4159 1805.43 35.2905C1813.53 40.4401 1813.13 46.4678 1810.9 52.9415C1810.9 52.9415 1810.83 52.7864 1810.23 53.0866C1809.13 55.0429 1808.63 56.6992 1808.12 58.3554C1808.12 58.3554 1807.92 59.0272 1806.79 58.889C1793.09 62.9201 1787.5 70.8195 1790.39 80.3233Z" fill="#187163"/>
<path d="M893.538 148.985C893.667 205.51 894.739 262.055 893.495 318.55C892.926 344.26 889.511 370.248 884.003 395.369C881.058 408.8 871.348 420.912 863.945 433.17C848.191 459.258 831.457 484.759 816.081 511.061C805.466 529.226 795.4 547.865 786.969 567.116C772.476 600.214 758.423 633.579 746.103 667.527C734.138 700.496 723.079 733.956 714.397 767.911C705.934 801.001 701.279 835.052 694.414 868.572C686.99 904.823 683.875 941.466 683.054 978.364C682.199 1016.78 680.382 1055.22 681.108 1093.62C681.727 1126.4 685.181 1159.13 687.703 1191.86C689.724 1218.13 692.225 1244.36 694.508 1270.6C694.542 1270.98 694.487 1271.37 694.524 1271.75C696.727 1294.51 696.369 1294.66 672.799 1295.11C660.729 1295.35 648.618 1297.7 636.625 1297.1C601.093 1295.33 565.524 1292.83 531.301 1282.01C502.725 1272.98 473.356 1265.46 446.206 1253.16C416.638 1239.75 388.574 1222.63 361.085 1205.18C340.802 1192.31 321.635 1177.3 303.546 1161.45C284.881 1145.09 267.496 1127.13 250.715 1108.8C235.17 1091.83 220.126 1074.19 206.683 1055.53C174.929 1011.45 149.9 963.434 133.522 911.736C123.126 878.92 117.348 844.608 110.158 810.827C107.228 797.068 106.042 782.935 103.861 767.546C117.392 768.768 128.801 767.817 138.817 771.106C161.536 778.567 184.198 786.719 203.174 802.342C213.843 811.128 225.497 818.728 236.036 827.654C257.044 845.442 268.426 869.686 279.66 894.087C292.979 923.02 306.663 951.799 320.876 980.301C332.722 1004.06 344.448 1027.99 358.272 1050.6C371.821 1072.76 386.951 1094.14 403.22 1114.39C421.278 1136.86 440.272 1158.84 460.922 1178.91C487.377 1204.62 517.094 1226.51 547.699 1247.38C567.812 1261.1 589.701 1266.97 612.425 1272.47C622.405 1274.88 632.007 1278.85 641.783 1282.11C642.798 1281.08 643.816 1280.05 644.831 1279.02C634.221 1265.34 625.03 1250.2 612.7 1238.31C588.512 1214.97 562.359 1193.69 537.441 1171.09C520.629 1155.84 503.94 1140.37 488.315 1123.94C475.28 1110.22 463.718 1095.09 451.785 1080.36C441.207 1067.3 430.432 1054.33 420.794 1040.58C407.626 1021.81 394.985 1002.62 382.995 983.072C372.199 965.478 361.678 947.602 352.661 929.057C339.012 900.982 326.653 872.271 313.991 843.721C309.067 832.62 303.988 821.476 300.406 809.913C291.531 781.271 282.413 752.632 275.396 723.509C268.607 695.321 263.163 666.688 259.269 637.962C255.48 610.019 254.357 581.712 252.232 553.552C252.077 551.507 253.303 549.357 255.155 546.111C258.043 541.429 260.938 537.938 261.075 534.342C262.235 504.373 262.886 474.383 263.691 444.398C281.09 463.941 298.911 483.128 315.756 503.137C328.846 518.691 340.712 535.274 353.133 551.395C372.9 577.05 384.37 606.48 389.36 638.01C394.51 670.555 396.493 703.595 401.423 736.182C404.754 758.183 410.202 779.926 415.776 801.508C421.514 823.709 428.087 845.722 435.129 867.549C446.481 902.74 457.435 938.125 470.645 972.629C479.582 995.974 491.98 1018.01 503.051 1040.52C514.921 1064.66 525.779 1089.43 539.456 1112.51C550.967 1131.94 565.893 1149.34 579.3 1167.64C588.649 1180.41 597.971 1193.19 607.335 1205.94C614.465 1215.66 621.401 1225.53 628.867 1234.98C637.661 1246.11 646.424 1236.44 656.177 1234.77C643.763 1215.36 631.452 1196.9 619.976 1177.94C606.995 1156.5 594.228 1134.89 582.344 1112.83C568.763 1087.62 555.579 1062.15 543.493 1036.21C533.18 1014.07 524.26 991.255 515.474 968.451C505.884 943.559 496.282 918.605 488.299 893.175C480.322 867.763 473.574 841.896 467.69 815.914C461.447 788.354 456.711 760.445 451.6 732.636C448.966 718.317 446.587 703.932 444.744 689.494C442.794 674.215 441.104 658.87 440.203 643.499C438.322 611.371 435.42 579.184 435.906 547.065C436.518 506.649 438.532 466.107 442.871 425.936C446.667 390.787 454.149 356.009 460.686 321.195C466.306 291.265 471.954 261.282 479.325 231.756C485.864 205.567 494.758 179.964 502.675 154.121C508.522 135.034 513.94 115.794 520.523 96.9615C527.104 78.1296 534.95 59.7421 542.131 41.1174C546.926 28.6857 551.526 16.1792 555.45 2.9991C563.154 2.29199 571.619 2.29199 581.14 3.28276C582.307 7.69411 581.81 11.266 582.621 14.512C591.155 48.7099 599.952 82.8421 608.559 117.021C613.631 137.156 619.659 157.142 623.171 177.554C628.11 206.268 632.433 235.219 634.546 264.251C636.403 289.757 638.505 316.178 633.973 341.003C626.882 379.867 614.204 417.707 604.071 456.026C599.612 472.882 594.529 489.671 591.618 506.812C586.859 534.802 583.052 562.99 579.921 591.213C574.869 636.754 568.71 682.304 566.654 728.013C564.099 784.824 565.254 841.8 573.026 898.373C576.639 924.654 579.421 951.086 584.106 977.175C588.565 1002.01 594.506 1026.61 600.738 1051.07C606.131 1072.25 611.465 1093.62 619.338 1113.93C628.527 1137.62 640.137 1160.42 651.354 1183.28C655.15 1191.02 660.954 1197.77 665.841 1204.97C665.391 1193.33 662.026 1182.68 660.28 1171.76C653.791 1131.22 647.54 1090.63 641.76 1049.98C636.071 1009.97 630.166 969.955 626.052 929.765C623.01 900.072 621.569 870.105 621.422 840.248C621.195 794.205 621.757 748.114 623.739 702.119C625.376 664.149 628.58 626.173 632.896 588.407C636.916 553.215 642.956 518.231 648.815 483.274C652.132 463.503 655.82 443.672 661.243 424.402C668.245 399.517 676.983 375.109 685.294 350.602C692.296 329.96 698.929 309.129 707.238 289.005C716.297 267.065 726.572 245.579 737.267 224.375C751.93 195.307 766.783 166.289 782.924 138.031C792.583 121.118 804.63 105.537 816.008 89.6465C829.742 70.4635 844.063 51.7004 857.814 32.5281C864.857 22.7051 871.211 12.3866 877.876 2.29199C880.322 2.29199 882.765 2.29199 886.128 3.36619C887.045 46.173 886.77 87.9096 887.338 129.634C887.425 136.112 891.375 142.536 893.538 148.985Z" fill="#187163"/>
<path d="M2.29208 1637.69C4.58134 1630.21 8.04013 1624.05 8.97166 1617.53C15.4233 1572.35 21.4749 1527.11 27.3946 1481.86C30.7463 1456.24 32.9002 1430.44 36.9052 1404.93C40.1781 1384.08 61.6725 1362.77 83.859 1356.88C98.8821 1352.89 113.721 1348.21 128.718 1344.11C155.472 1336.8 182.192 1329.34 209.099 1322.62C230.723 1317.23 252.51 1312.39 274.395 1308.19C289.44 1305.31 304.722 1303.01 319.994 1302.11C345.757 1300.58 371.761 1298.22 397.366 1300.16C428.161 1302.49 458.776 1308.22 489.225 1313.82C521.873 1319.81 552.232 1333.48 579.958 1350.76C605.045 1366.39 628.035 1385.95 649.89 1406.02C667.087 1421.82 681.264 1440.93 696.523 1458.78C700.467 1463.4 703.436 1468.85 706.853 1473.91C706.218 1474.7 705.581 1475.49 704.946 1476.28C692.741 1470.92 680.496 1465.64 668.341 1460.17C632.341 1443.96 596.75 1426.78 560.271 1411.74C535.388 1401.49 509.673 1392.67 483.611 1386.03C461.291 1380.35 438.024 1378.04 415.038 1375.43C393.692 1373.02 371.99 1369.72 350.759 1371.23C317.629 1373.58 284.067 1373.36 251.632 1383.33C226.86 1390.95 201.03 1395.2 176.425 1403.26C156.815 1409.68 136.775 1417.22 119.76 1428.53C98.0693 1442.94 81.6267 1463.52 80.424 1491.49C79.4077 1515.12 80.2145 1538.84 80.2145 1562.79C122.927 1549.26 164.643 1535.19 206.912 1523.05C225.781 1517.63 246.044 1517.22 265.176 1512.51C302.97 1503.22 341.347 1504.85 379.396 1506.5C406.805 1507.69 434.32 1513.01 461.142 1519.25C485.452 1524.91 509.033 1533.9 532.658 1542.21C547.203 1547.33 561.142 1554.15 575.513 1559.8C596.399 1568.01 617.447 1575.81 638.386 1583.88C648.01 1587.59 657.795 1591.02 667.053 1595.52C681.734 1602.65 701.515 1591.01 709.805 1579.06C722.731 1560.41 735.067 1540.84 750.839 1524.79C785.8 1489.21 844.911 1484.41 882.967 1519.74C898.62 1534.27 910.085 1553.27 923.792 1569.96C929.527 1576.94 935.523 1583.96 942.486 1589.62C957.557 1601.89 972.923 1592.27 986.96 1587.33C1012.87 1578.22 1037.9 1566.63 1063.37 1556.25C1082.32 1548.52 1100.95 1539.56 1120.5 1533.84C1148.89 1525.54 1177.83 1518.93 1206.82 1513.03C1225.12 1509.31 1243.93 1506.6 1262.54 1506.38C1279.63 1506.18 1296.77 1509.89 1313.89 1511.92C1320.6 1512.71 1327.29 1513.62 1333.99 1514.47C1334.14 1515.71 1334.29 1516.95 1334.43 1518.2C1328.27 1520.95 1322.17 1523.87 1315.93 1526.45C1289.34 1537.46 1262.54 1547.97 1236.15 1559.43C1205.12 1572.92 1174.56 1587.49 1143.56 1601.04C1123.93 1609.61 1103.72 1616.85 1084.03 1625.29C1066.56 1632.78 1049.45 1641.09 1032.96 1649.67C993.962 1650.29 954.185 1650.29 914.103 1649.78C892.759 1629.59 876.574 1605.43 851.453 1589.24C827.764 1573.98 796.183 1570.84 775.254 1589.55C761.508 1601.84 749.764 1616.51 738.044 1630.86C733.65 1636.24 731.865 1643.75 728.889 1650.29C697.515 1650.29 666.143 1650.29 634.519 1649.71C633.432 1647.44 633.047 1644.86 631.697 1644.17C614.983 1635.55 598.769 1625.38 581.166 1619.2C551.584 1608.82 521.408 1599.68 490.886 1592.56C466.643 1586.91 441.595 1583.04 416.755 1582.04C384.583 1580.73 352.26 1583.83 320.012 1583.62C278.83 1583.35 238.771 1591.77 198.449 1597.9C180.647 1600.61 162.747 1605.29 146.044 1611.97C123.191 1621.1 101.39 1632.88 79.2777 1643.81C76.8314 1645.02 75.3021 1648.09 73.3474 1650.29C49.6621 1650.29 25.9769 1650.29 2.29209 1650.29C2.29209 1646.37 2.29209 1642.6 2.29208 1637.69Z" fill="#187163"/>
<path d="M893.703 147.922C891.374 142.536 887.425 136.112 887.338 129.634C886.77 87.9096 887.045 46.173 887.045 3.36619C888.764 2.29199 890.483 2.29199 893.061 2.29199C893.903 50.481 893.887 98.6697 893.703 147.922Z" fill="#187163"/>
<path d="M1312.76 149.87C1321.68 189.889 1329.62 229.205 1338.78 268.239C1344.69 293.454 1352.61 318.19 1359.2 343.256C1368.61 379.074 1377.05 415.156 1387 450.823C1393.46 473.971 1402.26 496.458 1409.27 519.466C1415.28 539.187 1420.47 559.172 1425.62 579.143C1433.22 608.586 1441.7 637.879 1447.49 667.685C1452.39 692.871 1463.99 714.996 1473.93 737.988C1477.88 747.112 1486.95 748.614 1494.28 741.76C1502.9 733.708 1511.74 725.906 1521.38 717.183C1528.12 730.096 1527.24 740.316 1523.72 750.929C1517.54 769.52 1511.73 788.237 1505.94 806.956C1502.01 819.659 1497.85 832.327 1494.71 845.234C1487.45 875.164 1480.98 905.286 1473.72 935.218C1469.28 953.559 1464.08 971.722 1459.04 989.916C1454.21 1007.39 1448.74 1024.69 1444.28 1042.26C1436.26 1073.88 1429.05 1105.71 1420.78 1137.26C1419.66 1141.5 1414.51 1147.38 1410.91 1147.62C1405.74 1147.97 1399.42 1144.83 1395.2 1141.28C1391.87 1138.48 1390.28 1132.97 1389.12 1128.36C1383.51 1106.08 1378.89 1083.53 1372.84 1061.38C1364.24 1029.93 1354.9 998.679 1345.52 967.452C1337.01 939.119 1327.38 911.108 1319.47 882.615C1314.71 865.482 1312.68 847.606 1308.66 830.241C1306.17 819.462 1303.58 808.343 1298.7 798.547C1287.24 775.596 1286.72 750.331 1281.24 726.131C1278.37 713.458 1275.78 700.675 1272.01 688.263C1262.23 656.087 1251.62 624.166 1241.85 591.985C1237.55 577.804 1234.33 563.286 1230.95 548.841C1227.33 533.303 1224.59 517.545 1220.59 502.108C1212.8 472.034 1204.73 442.024 1196.12 412.177C1191.82 397.251 1185.22 382.973 1181.2 367.99C1174.2 341.863 1168.59 315.366 1162.02 289.12C1157.78 272.207 1153.4 255.293 1148.13 238.685C1141.86 218.931 1134.57 199.5 1127.69 179.941C1127.28 178.767 1126.58 177.694 1123.78 176.709C1123.57 180.175 1123.16 183.64 1123.16 187.106C1123.13 294.057 1122.89 401.01 1123.5 507.958C1123.56 519.095 1126.53 531.362 1131.82 541.117C1150.38 575.367 1145.62 608.408 1131.07 642.204C1126.77 652.193 1123.53 663.557 1123.47 674.309C1122.9 774.764 1121.84 875.248 1123.88 975.667C1124.54 1008.2 1122.59 1042.36 1136.57 1073.27C1146.22 1094.6 1159.2 1113.97 1180.99 1125.93C1185.27 1128.28 1188.89 1135.68 1189.02 1140.85C1189.19 1148.19 1182.74 1150.7 1175.42 1150.69C1120.8 1150.56 1066.17 1150.85 1011.56 1150.24C1006.42 1150.18 999.225 1145.87 996.969 1141.48C995.468 1138.56 999.913 1130.76 1003.68 1127.29C1015.08 1116.78 1029.52 1108.93 1038.85 1096.98C1047.42 1086 1052.02 1071.4 1056.4 1057.77C1066.84 1025.22 1073.26 991.975 1072.94 957.417C1072.63 925.122 1074.7 892.808 1074.9 860.497C1075.25 801.678 1075.13 742.852 1074.93 684.03C1074.85 661.002 1069.46 639.396 1059.23 618.38C1049.13 597.637 1049.83 575.924 1061.94 555.33C1070.18 541.312 1074.99 526.209 1074.99 509.794C1075 407.425 1075.57 305.052 1074.66 202.694C1074.38 171.439 1072.99 139.551 1056.29 111.306C1046.04 93.975 1032.26 80.1737 1015.83 68.1213C1007.63 62.1069 993.749 56.9729 997.341 41.9085C998.038 38.9836 1001.77 35.9503 1004.82 34.6564C1007.73 33.4196 1011.58 34.3816 1015.02 34.3816C1097.9 34.3811 1180.79 34.3772 1263.68 34.3862C1274.1 34.3873 1282.14 43.1627 1283.82 53.378C1285.91 66.1447 1289.16 78.8072 1292.97 91.1888C1298.94 110.618 1305.81 129.774 1312.76 149.87Z" fill="#187163"/>
<path d="M1492.2 555.887C1503.63 543.822 1514.74 532.368 1526.58 521.735C1531.5 517.318 1536.62 518.316 1543.69 521.552C1568.37 532.847 1573.35 555.587 1579.04 577.726C1586.46 606.583 1573.93 629.412 1554.52 649.647C1551.24 653.064 1549.93 658.611 1546.34 661.414C1542.65 664.291 1535.72 667.8 1532.9 666.221C1514.24 655.778 1494.52 643.68 1490.89 621.33C1487.73 601.93 1491.4 581.423 1492.05 561.404C1492.1 559.88 1492.13 558.353 1492.2 555.887Z" fill="#187163"/>
<path d="M263.617 443.578C262.886 474.383 262.235 504.373 261.075 534.342C260.938 537.938 258.043 541.429 255.616 545.24C255.444 512.886 255.98 480.253 257.007 447.637C257.06 445.943 261.27 444.38 263.617 443.578Z" fill="#187163"/>
<path d="M1791.12 79.9982C1787.5 70.8192 1793.09 62.9198 1806.46 58.9939C1802.12 66.0491 1796.98 72.8612 1791.12 79.9982Z" fill="#187163"/>
<path d="M1811.7 52.8334C1813.13 46.4678 1813.53 40.4401 1806.49 35.4556C1811.26 36.6305 1816.34 38.4976 1823.88 41.2712C1819.14 46.0465 1815.82 49.3859 1811.7 52.8334Z" fill="#187163"/>
<path d="M1808.65 57.9571C1808.63 56.6992 1809.13 55.0432 1810.31 53.1172C1810.39 54.4179 1809.78 55.9882 1808.65 57.9571Z" fill="#187163"/>
<path d="M1064.5 1276.9L1061.24 1300.98H1038.24V1402.75H1006.19V1300.98H981.564V1276.9H1064.5ZM1124.26 1402.75V1349.87H1102.35V1402.75H1070.3V1276.9H1102.35V1325.07H1124.26V1276.9H1156.31V1402.75H1124.26ZM1239.03 1276.9L1235.59 1299.54H1201.91V1327.78H1231.61V1350.06H1201.91V1379.93H1237.94V1402.75H1169.86V1276.9H1239.03ZM1391.03 1402.75H1360.79L1360.25 1354.94L1360.06 1329.78C1360.06 1324.22 1360.19 1315.89 1360.43 1304.79L1348.66 1389.71H1318.6L1306.28 1304.79C1306.77 1317.95 1307.01 1330.8 1307.01 1343.36V1355.13L1306.47 1402.75H1276.59L1283.83 1276.9H1322.94L1334.17 1361.1L1343.95 1276.9H1383.6L1391.03 1402.75ZM1457.29 1402.75L1452.94 1376.49H1427.95L1423.79 1402.75H1391.74L1421.8 1276.9H1459.82L1489.7 1402.75H1457.29ZM1431.76 1353.68H1449.32L1440.45 1299.9L1431.76 1353.68ZM1531.48 1273.64C1539.69 1273.64 1546.88 1275.03 1553.03 1277.81C1559.31 1280.58 1564.98 1284.69 1570.05 1290.12L1556.47 1306.6C1549.23 1300.08 1542.17 1296.82 1535.29 1296.82C1531.54 1296.82 1528.65 1297.91 1526.59 1300.08C1524.66 1302.13 1523.7 1304.91 1523.7 1308.41C1523.7 1311.79 1524.9 1314.62 1527.32 1316.92C1529.85 1319.21 1534.74 1321.93 1541.99 1325.07C1549.23 1328.33 1555.02 1331.65 1559.37 1335.03C1563.72 1338.41 1566.97 1342.57 1569.15 1347.52C1571.44 1352.35 1572.59 1358.39 1572.59 1365.63C1572.59 1373.47 1570.78 1380.48 1567.16 1386.63C1563.65 1392.67 1558.58 1397.44 1551.95 1400.94C1545.31 1404.32 1537.52 1406.01 1528.59 1406.01C1519.17 1406.01 1511.08 1404.38 1504.32 1401.12C1497.56 1397.86 1491.59 1393.45 1486.4 1387.9L1501.43 1371.06C1505.77 1374.92 1509.87 1377.88 1513.74 1379.93C1517.6 1381.87 1521.71 1382.83 1526.05 1382.83C1530.64 1382.83 1533.96 1381.5 1536.01 1378.85C1538.18 1376.19 1539.27 1372.69 1539.27 1368.34C1539.27 1364.24 1538.06 1360.8 1535.65 1358.02C1533.23 1355.25 1529.01 1352.53 1522.97 1349.87C1511.14 1344.8 1502.75 1339.31 1497.8 1333.4C1492.97 1327.48 1490.56 1320.06 1490.56 1311.12C1490.56 1303.64 1492.31 1297.06 1495.81 1291.39C1499.43 1285.71 1504.32 1281.37 1510.48 1278.35C1516.75 1275.21 1523.76 1273.64 1531.48 1273.64ZM1654.76 1276.9L1651.5 1300.98H1628.51V1402.75H1596.46V1300.98H1571.83V1276.9H1654.76ZM1729.74 1276.9L1726.3 1299.54H1692.62V1327.78H1722.32V1350.06H1692.62V1379.93H1728.65V1402.75H1660.57V1276.9H1729.74ZM1776.21 1355.85H1770.6V1402.75H1738.55V1276.9H1774.58C1806.45 1276.9 1822.39 1289.88 1822.39 1315.83C1822.39 1323.08 1820.94 1329.72 1818.04 1335.75C1815.15 1341.67 1810.56 1346.37 1804.28 1349.87L1829.45 1402.75H1795.59L1776.21 1355.85ZM1770.6 1333.94H1775.13C1780.44 1333.94 1784.18 1332.55 1786.35 1329.78C1788.65 1326.88 1789.79 1322.23 1789.79 1315.83C1789.79 1310.16 1788.53 1306 1785.99 1303.34C1783.58 1300.56 1779.78 1299.17 1774.58 1299.17H1770.6V1333.94ZM1869.41 1273.64C1877.62 1273.64 1884.8 1275.03 1890.96 1277.81C1897.24 1280.58 1902.91 1284.69 1907.98 1290.12L1894.4 1306.6C1887.15 1300.08 1880.09 1296.82 1873.21 1296.82C1869.47 1296.82 1866.57 1297.91 1864.52 1300.08C1862.59 1302.13 1861.62 1304.91 1861.62 1308.41C1861.62 1311.79 1862.83 1314.62 1865.24 1316.92C1867.78 1319.21 1872.67 1321.93 1879.91 1325.07C1887.15 1328.33 1892.95 1331.65 1897.29 1335.03C1901.64 1338.41 1904.9 1342.57 1907.07 1347.52C1909.37 1352.35 1910.51 1358.39 1910.51 1365.63C1910.51 1373.47 1908.7 1380.48 1905.08 1386.63C1901.58 1392.67 1896.51 1397.44 1889.87 1400.94C1883.23 1404.32 1875.45 1406.01 1866.51 1406.01C1857.1 1406.01 1849.01 1404.38 1842.25 1401.12C1835.49 1397.86 1829.51 1393.45 1824.32 1387.9L1839.35 1371.06C1843.7 1374.92 1847.8 1377.88 1851.66 1379.93C1855.53 1381.87 1859.63 1382.83 1863.98 1382.83C1868.57 1382.83 1871.88 1381.5 1873.94 1378.85C1876.11 1376.19 1877.2 1372.69 1877.2 1368.34C1877.2 1364.24 1875.99 1360.8 1873.57 1358.02C1871.16 1355.25 1866.94 1352.53 1860.9 1349.87C1849.07 1344.8 1840.68 1339.31 1835.73 1333.4C1830.9 1327.48 1828.49 1320.06 1828.49 1311.12C1828.49 1303.64 1830.24 1297.06 1833.74 1291.39C1837.36 1285.71 1842.25 1281.37 1848.4 1278.35C1854.68 1275.21 1861.68 1273.64 1869.41 1273.64ZM2007.59 1402.75L2003.24 1376.49H1978.26L1974.09 1402.75H1942.04L1972.1 1276.9H2010.13L2040 1402.75H2007.59ZM1982.06 1353.68H1999.62L1990.75 1299.9L1982.06 1353.68ZM2088.89 1273.64C2101.81 1273.64 2113.28 1278.35 2123.29 1287.77L2108.63 1305.15C2105.61 1302.49 2102.71 1300.5 2099.93 1299.17C2097.28 1297.85 2094.44 1297.18 2091.42 1297.18C2085.15 1297.18 2080.44 1300.44 2077.3 1306.96C2074.28 1313.48 2072.77 1324.34 2072.77 1339.55C2072.77 1354.52 2074.34 1365.33 2077.48 1371.97C2080.62 1378.48 2085.27 1381.74 2091.42 1381.74C2094.81 1381.74 2097.76 1381.02 2100.3 1379.57C2102.95 1378.12 2106.27 1375.77 2110.26 1372.51L2124.38 1389.53C2119.91 1394.36 2114.6 1398.34 2108.45 1401.48C2102.41 1404.5 2095.71 1406.01 2088.35 1406.01C2073.38 1406.01 2061.49 1400.45 2052.67 1389.35C2043.86 1378.12 2039.46 1361.52 2039.46 1339.55C2039.46 1325.19 2041.51 1313.12 2045.61 1303.34C2049.84 1293.44 2055.63 1286.02 2063 1281.07C2070.48 1276.12 2079.11 1273.64 2088.89 1273.64ZM2186.9 1402.75L2182.55 1376.49H2157.57L2153.4 1402.75H2121.35L2151.41 1276.9H2189.43L2219.31 1402.75H2186.9ZM2161.37 1353.68H2178.93L2170.06 1299.9L2161.37 1353.68ZM2257.47 1276.9C2268.46 1276.9 2277.93 1278.53 2285.9 1281.79C2293.87 1284.93 2300.33 1291.09 2305.28 1300.26C2310.24 1309.44 2312.71 1322.47 2312.71 1339.37C2312.71 1362.79 2307.87 1379.21 2298.22 1388.62C2288.68 1398.04 2275.64 1402.75 2259.1 1402.75H2223.25V1276.9H2257.47ZM2255.3 1299.72V1379.75H2260.91C2265.38 1379.75 2268.94 1378.61 2271.6 1376.31C2274.37 1373.9 2276.42 1369.79 2277.75 1364C2279.2 1358.08 2279.92 1349.87 2279.92 1339.37C2279.92 1328.87 2279.2 1320.72 2277.75 1314.93C2276.42 1309.13 2274.37 1305.15 2271.6 1302.98C2268.94 1300.8 2265.5 1299.72 2261.27 1299.72H2255.3ZM2392.5 1276.9L2389.06 1299.54H2355.39V1327.78H2385.07V1350.06H2355.39V1379.93H2391.42V1402.75H2323.35V1276.9H2392.5ZM2512.49 1402.75H2482.26L2481.71 1354.94L2481.52 1329.78C2481.52 1324.22 2481.66 1315.89 2481.89 1304.79L2470.13 1389.71H2440.06L2427.75 1304.79C2428.23 1317.95 2428.49 1330.8 2428.49 1343.36V1355.13L2427.94 1402.75H2398.07L2405.31 1276.9H2444.42L2455.65 1361.1L2465.41 1276.9H2505.06L2512.49 1402.75ZM2607.11 1276.9L2574.15 1355.85V1402.75H2542.1V1356.03L2509.14 1276.9H2542.66L2558.59 1331.22L2574.7 1276.9H2607.11Z" fill="#FEA800"/>
</g>
</g>
<defs>
<clipPath id="clip0_1686_606">
<rect width="2613" height="1648" fill="white"/>
</clipPath>
</defs>
</svg>
