<svg width="289" height="245" viewBox="0 0 289 245" fill="none" xmlns="http://www.w3.org/2000/svg">
<g clip-path="url(#clip0_159_906)">
<path opacity="0.2" fill-rule="evenodd" clip-rule="evenodd" d="M211.627 40.1369V22.7104H196.832C196.693 31.6281 190.068 38.9718 181.467 40.2317C181.518 48.5165 188.25 55.2168 196.547 55.2168C204.875 55.2168 211.627 48.4653 211.627 40.1369ZM181.467 39.5922C189.718 38.3382 196.061 31.2783 196.199 22.7104H181.467V39.5922ZM211.627 22.0779H196.831C196.662 13.1878 190.048 5.87486 181.467 4.61782C181.518 -3.66707 188.25 -10.3675 196.547 -10.3675C204.875 -10.3675 211.627 -3.61599 211.627 4.71245V22.0779ZM196.198 22.0779C196.031 13.5375 189.698 6.50829 181.467 5.25734V22.0779H196.198ZM180.834 39.6764V5.17309C180.179 5.09795 179.512 5.05934 178.836 5.05934C177.962 5.05934 177.104 5.12386 176.265 5.24838V22.0779H176.265V22.7104H176.265V39.6011C177.104 39.7257 177.962 39.7902 178.836 39.7902C179.512 39.7902 180.179 39.7516 180.834 39.6764ZM196.547 -11C187.928 -11 180.93 -4.0601 180.835 4.53667C180.179 4.46411 179.512 4.42686 178.836 4.42686C177.963 4.42686 177.104 4.48903 176.264 4.60919C176.209 -4.02101 169.196 -10.9999 160.552 -10.9999C151.875 -10.9999 144.84 -3.96525 144.84 4.7125V22.078H144.839V4.71261C144.839 -3.96514 137.804 -10.9998 129.127 -10.9998C120.508 -10.9998 113.51 -4.05998 113.415 4.53675C112.759 4.46423 112.092 4.427 111.416 4.427C110.543 4.427 109.684 4.48919 108.844 4.60939C108.789 -4.02082 101.776 -10.9998 93.1323 -10.9998C84.4545 -10.9998 77.4198 -3.96506 77.4198 4.71269V37.5681C67.6116 37.7207 59.7076 45.7192 59.7076 55.5637C59.7076 55.7012 59.7092 55.8384 59.7122 55.9751C52.0339 56.9488 46.0841 63.464 45.9973 71.3862C45.3402 71.3135 44.6724 71.2762 43.9959 71.2762C43.1229 71.2762 42.2644 71.3384 41.4246 71.4585C41.3689 62.8283 34.3557 55.8495 25.7124 55.8495C17.0347 55.8495 10 62.8842 10 71.5619V106.986C10 115.664 17.0347 122.699 25.7124 122.699C34.3557 122.699 41.369 115.72 41.4246 107.09C42.2644 107.21 43.1229 107.272 43.9959 107.272C44.6724 107.272 45.3402 107.235 45.9973 107.162C46.0914 115.759 53.0896 122.699 61.7088 122.699C70.3036 122.699 77.2867 115.798 77.4193 107.235C77.552 115.798 84.535 122.699 93.1298 122.699C101.773 122.699 108.786 115.72 108.842 107.089C109.682 107.21 110.541 107.272 111.415 107.272C112.091 107.272 112.758 107.235 113.415 107.162C113.509 115.759 120.507 122.699 129.126 122.699C137.804 122.699 144.839 115.664 144.839 106.986V89.5598L144.839 106.986C144.839 115.664 151.874 122.699 160.551 122.699C169.195 122.699 176.208 115.72 176.263 107.089C177.104 107.21 177.963 107.272 178.836 107.272C179.512 107.272 180.18 107.235 180.836 107.162C180.931 115.759 187.929 122.699 196.548 122.699C205.226 122.699 212.26 115.664 212.26 106.986V89.5597H212.261V88.9272H212.26V71.5618C212.26 62.8841 205.226 55.8494 196.548 55.8494C187.929 55.8494 180.93 62.7893 180.836 71.3861C180.18 71.3135 179.512 71.2762 178.836 71.2762C177.963 71.2762 177.104 71.3384 176.263 71.4587C176.212 63.504 170.25 56.9522 162.549 55.9751C162.551 55.8913 162.552 55.8073 162.553 55.7232C170.253 54.7448 176.213 48.1938 176.264 40.2403C177.104 40.3605 177.963 40.4227 178.836 40.4227C179.512 40.4227 180.179 40.3854 180.835 40.3128C180.93 48.9095 187.928 55.8493 196.547 55.8493C205.225 55.8493 212.259 48.8146 212.259 40.1369V22.7104H212.26V22.0779H212.259V4.71245C212.259 -3.96529 205.225 -11 196.547 -11ZM145.471 88.9272V73.5388C154.639 73.0793 161.999 65.7601 162.524 56.6096C169.92 57.5757 175.631 63.9012 175.631 71.5607C167.33 73.0526 161.006 80.2362 160.841 88.9272H145.471ZM161.92 55.7907C161.919 55.8298 161.918 55.8689 161.918 55.9079C161.479 55.8701 161.035 55.8503 160.587 55.8493C161.036 55.8484 161.48 55.8286 161.92 55.7907ZM144.84 40.1369C144.84 48.8029 151.855 55.8303 160.517 55.8493C151.855 55.8678 144.839 62.8954 144.839 71.5617L144.839 71.5619C144.839 62.8945 137.821 55.8663 129.157 55.8495C137.821 55.8328 144.839 48.8045 144.839 40.137V38.2006L144.84 38.2006V40.1369ZM145.471 71.5617V72.9055C154.313 72.4461 161.404 65.3739 161.894 56.5407C161.452 56.5017 161.004 56.4818 160.551 56.4818C152.223 56.4818 145.471 63.2333 145.471 71.5617ZM162.547 55.0861C169.932 54.11 175.632 47.7898 175.632 40.1384C167.311 38.6434 160.976 31.4293 160.84 22.7104H145.472V37.5888C154.829 38.0582 162.302 45.6724 162.547 55.0861ZM145.472 38.2221C154.502 38.6918 161.707 46.0595 161.916 55.156C161.467 55.1963 161.012 55.2169 160.552 55.2169C152.224 55.2169 145.472 48.4654 145.472 40.1369V38.2221ZM144.84 37.5681L144.839 37.5681V22.7105H144.84V37.5681ZM160.552 -10.3675C168.88 -10.3675 175.631 -3.61666 175.632 4.71116C167.331 6.20262 161.006 13.3865 160.841 22.0779H145.472V4.7125C145.472 -3.61594 152.224 -10.3675 160.552 -10.3675ZM175.632 22.7104H161.473C161.608 31.079 167.662 38.0089 175.632 39.4953V22.7104ZM175.632 5.35425C167.682 6.83703 161.637 13.7368 161.474 22.0779H175.632V5.35425ZM144.207 37.5692V22.7105H129.412C129.273 31.6285 122.648 38.9722 114.047 40.2319C114.093 47.6452 119.488 53.7898 126.566 55.0005C126.86 45.4369 134.615 37.7515 144.207 37.5692ZM78.0498 88.9273V73.5584C87.4528 73.382 95.0919 65.9945 95.6685 56.6946C102.788 57.9015 108.209 64.098 108.21 71.5608C99.9091 73.0528 93.5845 80.2364 93.4203 88.9273H78.0498ZM78.0498 72.9258C87.1347 72.7491 94.5102 65.5958 95.0404 56.6017C94.4147 56.5226 93.777 56.4818 93.1298 56.4818C84.8014 56.4818 78.0498 63.2334 78.0498 71.5618V72.9258ZM108.842 71.4587C108.792 63.7013 103.121 57.2779 95.6967 56.058C95.7005 55.9192 95.7027 55.7799 95.7032 55.6403C103.125 54.4187 108.794 47.9964 108.844 40.2404C109.684 40.3606 110.543 40.4228 111.416 40.4228C112.092 40.4228 112.759 40.3856 113.415 40.313C113.5 48.0371 119.158 54.4236 126.558 55.6405C126.558 55.7798 126.561 55.9187 126.564 56.0573C119.161 57.2713 113.5 63.6595 113.415 71.3861C112.758 71.3135 112.091 71.2762 111.415 71.2762C110.541 71.2762 109.682 71.3385 108.842 71.4587ZM114.047 71.4672C114.092 64.0445 119.501 57.8937 126.593 56.6938C127.169 65.9924 134.805 73.3794 144.206 73.5583V88.9273H129.41C129.242 80.0373 122.628 72.7245 114.047 71.4672ZM127.221 56.6012C127.75 65.5938 135.124 72.7465 144.206 72.9257V71.5619C144.206 63.2334 137.455 56.4819 129.126 56.4819C128.481 56.4819 127.845 56.5225 127.221 56.6012ZM127.195 55.967C127.818 55.8906 128.452 55.8507 129.095 55.8495C128.451 55.8482 127.815 55.8081 127.191 55.7314C127.192 55.8101 127.193 55.8886 127.195 55.967ZM93.1874 55.8495C93.8234 55.8518 94.4504 55.8918 95.0663 55.9675C95.0671 55.9324 95.0678 55.8973 95.0684 55.8622C95.0692 55.8186 95.0697 55.7749 95.0701 55.7312C94.4529 55.8072 93.8247 55.8473 93.1874 55.8495ZM77.4193 71.3136C77.5516 62.7686 84.5052 55.8788 93.0748 55.8495C84.4235 55.8185 77.4198 48.7957 77.4198 40.1371V38.2006C67.9609 38.3532 60.3401 46.0685 60.3401 55.5637C60.3401 55.6788 60.3412 55.7935 60.3434 55.908C60.7934 55.8693 61.2488 55.8495 61.7088 55.8495C70.3036 55.8495 77.2866 62.7504 77.4193 71.3136ZM144.207 38.2018C134.933 38.3845 127.442 45.8367 127.196 55.0946C127.828 55.1754 128.473 55.217 129.127 55.217C137.455 55.217 144.207 48.4655 144.207 40.137V38.2018ZM95.6948 55.0003C102.802 53.7836 108.212 47.5928 108.212 40.1384C99.8916 38.6433 93.5564 31.4293 93.4207 22.7106H78.0523V37.5691C87.6445 37.7504 95.4006 45.436 95.6948 55.0003ZM78.0523 38.2017C87.3267 38.3834 94.8191 45.8359 95.0647 55.0944C94.432 55.1754 93.787 55.2171 93.1323 55.2171C84.8038 55.2171 78.0523 48.4656 78.0523 40.1371V38.2017ZM114.047 39.5924C122.298 38.3387 128.641 31.2787 128.779 22.7105H114.047V39.5924ZM144.207 22.078H129.411C129.243 13.1877 122.629 5.87473 114.047 4.61789C114.098 -3.66696 120.83 -10.3674 129.127 -10.3674C137.455 -10.3674 144.207 -3.61583 144.207 4.71261V22.078ZM128.778 22.078C128.611 13.5375 122.278 6.50815 114.047 5.25741V22.078H128.778ZM113.414 39.6766V5.17317C112.759 5.09807 112.092 5.05948 111.416 5.05948C110.543 5.05948 109.684 5.12402 108.845 5.24858V22.0781H108.845V22.7106H108.845V39.6012C109.684 39.7258 110.543 39.7903 111.416 39.7903C112.092 39.7903 112.759 39.7517 113.414 39.6766ZM93.1323 -10.3673C101.46 -10.3673 108.212 -3.61646 108.212 4.71137C99.9111 6.203 93.586 13.3868 93.4217 22.0781H78.0523V4.71269C78.0523 -3.61576 84.8038 -10.3673 93.1323 -10.3673ZM108.212 22.7106H94.0532C94.1882 31.079 100.243 38.0088 108.212 39.4953V22.7106ZM108.212 5.35447C100.262 6.83741 94.2177 13.7371 94.0543 22.0781H108.212V5.35447ZM76.7887 73.5387V88.9274H61.9905C61.8225 80.0379 55.2095 72.7254 46.6291 71.4675C46.6758 63.8497 52.371 57.5714 59.7375 56.6096C60.2618 65.7597 67.6215 73.0788 76.7887 73.5387ZM76.7887 72.9054C67.948 72.4455 60.857 65.3736 60.3671 56.5408C60.8091 56.5019 61.2566 56.482 61.7088 56.482C70.0372 56.482 76.7887 63.2335 76.7887 71.5619V72.9054ZM26.0002 89.5599C26.1359 98.2788 32.4715 105.493 40.7924 106.988C40.7917 115.316 34.0404 122.066 25.7124 122.066C17.384 122.066 10.6325 115.315 10.6325 106.986V89.5599H26.0002ZM43.9959 106.64C43.1223 106.64 42.2638 106.575 41.4249 106.451V89.5599H41.4257V88.9274H41.4249V72.0977C42.2638 71.9732 43.1223 71.9087 43.9959 71.9087C44.6724 71.9087 45.3399 71.9474 45.9963 72.0227V106.526C45.3399 106.601 44.6724 106.64 43.9959 106.64ZM25.7124 56.4819C34.0404 56.4819 40.7916 63.2327 40.7924 71.5605C32.4909 73.0518 26.1655 80.2359 26.0013 88.9274H10.6325V71.5619C10.6325 63.2335 17.384 56.4819 25.7124 56.4819ZM40.7924 72.2036C32.842 73.6862 26.7972 80.5861 26.6338 88.9274H40.7924V72.2036ZM40.7924 106.345C32.8226 104.858 26.7678 97.9285 26.6328 89.5599H40.7924V106.345ZM46.6288 88.9274V72.107C54.8589 73.3588 61.1907 80.3877 61.3579 88.9274H46.6288ZM46.6288 89.5599H61.359C61.2207 98.1271 54.8784 105.186 46.6288 106.441V89.5599ZM61.9915 89.5599C61.8527 98.4769 55.2291 105.82 46.6291 107.081C46.6799 115.366 53.4118 122.066 61.7088 122.066C70.0372 122.066 76.7887 115.315 76.7887 106.986V89.5599H61.9915ZM108.21 106.987C99.8897 105.492 93.5549 98.2781 93.4192 89.5598H78.0498V106.986C78.0498 115.315 84.8014 122.066 93.1298 122.066C101.458 122.066 108.209 115.315 108.21 106.987ZM108.842 106.45C109.682 106.575 110.541 106.64 111.415 106.64C112.091 106.64 112.758 106.601 113.414 106.526V72.0225C112.758 71.9473 112.091 71.9087 111.415 71.9087C110.541 71.9087 109.682 71.9733 108.842 72.0979V88.9273H108.843V89.5598H108.842V106.45ZM94.0529 88.9273C94.2163 80.5866 100.26 73.6872 108.21 72.2039V88.9273H94.0529ZM94.0518 89.5598C94.1868 97.9279 100.241 104.857 108.21 106.344V89.5598H94.0518ZM114.046 72.1068V88.9273H128.777C128.61 80.3871 122.277 73.358 114.046 72.1068ZM128.778 89.5598H114.046V106.441C122.297 105.187 128.64 98.1275 128.778 89.5598ZM114.047 107.081C122.647 105.821 129.272 98.4773 129.411 89.5598H144.206V106.986C144.206 115.315 137.455 122.066 129.126 122.066C120.829 122.066 114.098 115.366 114.047 107.081ZM160.84 89.5597H145.471V106.986C145.471 115.315 152.223 122.066 160.551 122.066C168.879 122.066 175.631 115.315 175.631 106.987C167.311 105.492 160.976 98.2781 160.84 89.5597ZM176.264 106.45C177.103 106.575 177.962 106.639 178.836 106.639C179.512 106.639 180.179 106.601 180.835 106.526V72.0225C180.179 71.9473 179.512 71.9086 178.836 71.9086C177.962 71.9086 177.103 71.9732 176.264 72.0979V88.9272H176.265V89.5597H176.264V106.45ZM161.474 88.9272C161.637 80.5864 167.682 73.687 175.631 72.2038V88.9272H161.474ZM175.631 89.5597H161.473C161.608 97.9279 167.662 104.858 175.631 106.344V89.5597ZM181.468 72.1068V88.9272H196.198C196.031 80.3872 189.698 73.3581 181.468 72.1068ZM196.199 89.5597H181.468V106.441C189.718 105.187 196.061 98.1274 196.199 89.5597ZM196.832 89.5597H211.628V106.986C211.628 115.315 204.876 122.066 196.548 122.066C188.251 122.066 181.519 115.366 181.468 107.081C190.069 105.821 196.693 98.4772 196.832 89.5597ZM196.831 88.9272C196.663 80.0374 190.049 72.7247 181.468 71.4672C181.519 63.1823 188.251 56.4818 196.548 56.4818C204.876 56.4818 211.628 63.2334 211.628 71.5618V88.9272H196.831ZM279.048 40.1369V22.7105H264.253C264.114 31.6281 257.489 38.9716 248.889 40.2317C248.939 48.5165 255.671 55.2169 263.968 55.2169C272.297 55.2169 279.048 48.4654 279.048 40.1369ZM248.888 39.5922C257.139 38.3381 263.482 31.2783 263.62 22.7105H248.888V39.5922ZM279.048 22.078H264.252C264.084 13.1879 257.47 5.87504 248.889 4.61789C248.939 -3.66701 255.671 -10.3675 263.968 -10.3675C272.297 -10.3675 279.048 -3.61592 279.048 4.71252V22.078ZM263.619 22.078C263.452 13.5377 257.119 6.50847 248.888 5.25741V22.078H263.619ZM248.256 39.6764V5.17314C247.6 5.09799 246.933 5.05937 246.257 5.05937C245.384 5.05937 244.525 5.12387 243.686 5.24836V22.078H243.687V22.7105H243.686V39.6012C244.525 39.7257 245.384 39.7902 246.257 39.7902C246.933 39.7902 247.6 39.7516 248.256 39.6764ZM263.968 -10.9999C255.349 -10.9999 248.351 -4.06004 248.257 4.53672C247.6 4.46415 246.933 4.42689 246.257 4.42689C245.384 4.42689 244.526 4.48905 243.686 4.60917C243.63 -4.02099 236.617 -10.9999 227.974 -10.9999C219.296 -10.9999 212.261 -3.96519 212.261 4.71256V40.137C212.261 48.8147 219.296 55.8494 227.974 55.8494C236.617 55.8494 243.63 48.8705 243.686 40.2404C244.526 40.3605 245.384 40.4227 246.257 40.4227C246.933 40.4227 247.6 40.3854 248.257 40.3128C248.351 48.9095 255.349 55.8494 263.968 55.8494C272.646 55.8494 279.681 48.8147 279.681 40.1369V22.7105H279.681V22.078H279.681V4.71252C279.681 -3.96523 272.646 -10.9999 263.968 -10.9999ZM227.974 -10.3674C236.302 -10.3674 243.053 -3.61665 243.054 4.71113C234.752 6.20248 228.427 13.3865 228.262 22.078H212.894V4.71256C212.894 -3.61588 219.645 -10.3674 227.974 -10.3674ZM243.054 22.7105H228.894C229.029 31.0792 235.084 38.0091 243.054 39.4953V22.7105ZM243.054 40.1384C234.733 38.6436 228.397 31.4294 228.261 22.7105H212.894V40.137C212.894 48.4654 219.645 55.217 227.974 55.217C236.302 55.217 243.053 48.4662 243.054 40.1384ZM243.054 5.35423C235.103 6.83689 229.058 13.7367 228.895 22.078H243.054V5.35423Z" fill="#187163"/>
</g>
<defs>
<clipPath id="clip0_159_906">
<rect width="289" height="245" rx="18" fill="white"/>
</clipPath>
</defs>
</svg>
