<svg width="20" height="20" viewBox="0 0 20 20" fill="none" xmlns="http://www.w3.org/2000/svg">
<path d="M2.22222 20C1.61111 20 1.08778 19.7822 0.652224 19.3467C0.216668 18.9111 -0.000738854 18.3881 1.88644e-06 17.7778V2.22222C1.88644e-06 1.61111 0.21778 1.08778 0.653335 0.652224C1.08889 0.216668 1.61185 -0.000738854 2.22222 1.88644e-06H17.7778C18.3889 1.88644e-06 18.9122 0.21778 19.3478 0.653335C19.7833 1.08889 20.0007 1.61185 20 2.22222V17.7778C20 18.3889 19.7822 18.9122 19.3467 19.3478C18.9111 19.7833 18.3881 20.0007 17.7778 20H2.22222ZM3.33333 15.5556H16.6667L12.5 10L9.16667 14.4444L6.66667 11.1111L3.33333 15.5556Z" fill="#787486"/>
</svg>
